<?xml version="1.0" standalone="no"?>
<!DOCTYPE svg PUBLIC "-//W3C//DTD SVG 20010904//EN"
 "http://www.w3.org/TR/2001/REC-SVG-20010904/DTD/svg10.dtd">
<svg version="1.0" xmlns="http://www.w3.org/2000/svg"
 width="860.000000pt" height="860.000000pt" viewBox="0 0 860.000000 860.000000"
 preserveAspectRatio="xMidYMid meet">
<metadata>
Created by potrace 1.14, written by Peter Selinger 2001-2017
</metadata>
<g transform="translate(0.000000,860.000000) scale(0.100000,-0.100000)"
fill="#000000" stroke="none">
<path d="M3857 6554 c-1 -1 -20 -5 -42 -8 -81 -10 -273 -54 -690 -156 -137
-34 -257 -63 -265 -65 -8 -2 -78 -20 -155 -41 -77 -20 -156 -38 -175 -40 -43
-3 -61 -7 -169 -38 -47 -13 -201 -54 -341 -91 -140 -37 -353 -94 -472 -126
-120 -33 -225 -59 -233 -59 -8 0 -24 -9 -36 -21 -13 -13 -82 -38 -192 -70
-205 -59 -500 -153 -576 -182 -107 -41 -170 -139 -236 -367 -32 -111 -70 -258
-81 -315 -2 -11 -8 -42 -14 -70 -10 -51 -15 -73 -26 -133 -4 -22 -11 -31 -19
-28 -8 3 -16 -2 -19 -10 -10 -26 -7 -74 5 -74 7 0 9 -15 5 -41 -19 -136 -32
-253 -41 -369 -3 -41 -7 -100 -10 -130 -10 -133 -17 -286 -18 -420 -2 -109 -5
-144 -14 -143 -14 3 -40 -44 -37 -64 1 -7 2 -20 3 -28 0 -8 8 -15 16 -15 11 0
15 -12 16 -47 0 -27 2 -59 5 -73 31 -191 35 -199 106 -234 29 -14 69 -34 88
-45 51 -28 106 -51 122 -51 8 0 19 -20 27 -45 l13 -45 50 0 c28 0 78 -5 112
-10 33 -6 97 -16 141 -23 l79 -12 12 -57 c6 -32 9 -59 7 -62 -6 -5 47 -46 61
-46 6 0 20 -27 32 -60 l21 -60 -21 -6 c-11 -4 -22 -2 -24 4 -2 7 -11 8 -27 2
-14 -5 -27 -5 -30 0 -3 4 -19 2 -36 -7 -17 -8 -28 -17 -25 -20 2 -2 15 0 28 7
22 11 22 10 4 -4 -11 -9 -23 -16 -27 -16 -16 0 -20 22 -7 38 12 16 11 16 -6 2
-11 -8 -26 -15 -35 -15 -9 0 -22 -4 -28 -8 -8 -5 -13 -4 -13 3 0 6 -10 2 -22
-9 -11 -11 -24 -18 -28 -16 -4 2 -7 -2 -7 -10 0 -13 3 -13 17 0 9 8 20 12 23
9 4 -4 13 -1 22 6 18 15 20 -1 3 -18 -9 -9 -9 -12 1 -12 7 0 9 -5 5 -12 -4 -8
-3 -10 2 -5 5 5 10 13 10 18 1 5 3 11 4 14 2 5 6 16 9 31 0 3 13 -4 28 -15 24
-20 28 -20 51 -5 13 9 22 11 18 6 -3 -6 0 -12 6 -15 10 -3 10 -8 -1 -18 -12
-12 -13 -12 -6 1 7 12 6 13 -6 4 -17 -14 -50 -14 -42 -1 3 6 1 7 -5 3 -7 -4
-12 -1 -12 6 0 10 -2 10 -9 -1 -7 -11 -9 -11 -13 0 -3 10 -6 10 -12 1 -4 -7
-2 -12 4 -12 6 0 8 -5 4 -12 -5 -8 0 -7 11 2 17 14 18 13 12 -3 -5 -15 -4 -16
11 -8 12 7 22 5 35 -6 13 -12 20 -14 29 -5 8 8 18 7 39 -4 26 -13 28 -13 22 2
-6 15 -4 15 19 0 13 -9 28 -13 31 -9 4 3 7 0 7 -7 0 -9 5 -7 14 5 14 20 46 29
46 14 0 -8 -13 -13 -31 -11 -3 1 -6 -5 -6 -13 0 -12 5 -12 28 0 24 13 29 13
40 -2 12 -14 12 -16 0 -8 -10 5 -12 4 -7 -3 5 -9 13 -9 26 -2 24 13 40 13 20
0 -13 -9 -13 -10 1 -10 8 0 20 5 25 10 8 8 15 6 24 -5 17 -20 31 -19 24 2 -4
14 -2 14 8 -2 7 -11 26 -21 43 -23 23 -2 26 0 15 8 -13 8 -13 10 3 10 9 0 17
-5 17 -11 0 -8 4 -8 13 -2 16 13 48 8 58 -9 7 -11 9 -11 9 0 0 7 5 10 10 7 6
-4 8 -12 4 -18 -3 -7 1 -4 9 6 11 13 17 15 22 7 4 -7 17 -9 28 -6 12 3 27 0
34 -6 10 -8 12 -7 8 5 -4 8 -1 18 5 22 6 3 10 3 9 -2 -3 -20 2 -25 15 -14 11
9 16 9 22 0 5 -8 3 -9 -6 -4 -9 5 -11 4 -6 -4 11 -17 29 -2 21 18 -5 13 -4 14
6 3 14 -13 33 -17 25 -4 -3 5 5 8 17 7 12 -1 27 5 34 14 10 14 13 14 31 -2 17
-16 20 -16 26 -2 4 10 14 14 32 11 20 -4 24 -2 20 10 -3 9 -1 12 4 9 6 -3 10
-1 10 6 0 7 3 9 7 6 4 -4 -3 -21 -16 -37 -23 -31 -18 -38 11 -16 10 7 15 16
11 19 -3 4 -1 7 6 7 8 0 10 -7 6 -21 -5 -16 -4 -19 5 -14 7 4 16 2 20 -5 5 -7
20 -14 35 -16 22 -2 24 0 14 12 -11 14 -2 20 25 15 5 -1 6 5 2 14 -3 9 -2 13
4 10 6 -3 10 -1 10 6 0 7 3 10 6 7 9 -9 -16 -49 -26 -43 -5 3 -8 -4 -7 -15 1
-13 10 -23 27 -26 14 -3 33 -10 43 -15 12 -7 24 -5 42 7 24 16 25 15 34 -7 9
-22 10 -22 11 -4 1 11 4 14 7 7 8 -20 44 33 37 55 -5 17 -5 17 6 0 9 -14 9
-22 -1 -33 -10 -13 -8 -14 19 -9 24 4 32 2 32 -10 0 -8 -5 -15 -11 -15 -5 0
-8 4 -5 8 3 5 -1 9 -9 9 -8 0 -15 -4 -15 -8 0 -12 33 -20 43 -10 6 6 17 6 26
2 9 -5 24 -7 34 -6 9 2 17 -2 17 -8 0 -8 3 -7 9 1 11 17 21 17 33 0 7 -10 8
-10 7 2 -1 8 1 23 6 33 5 13 11 15 21 6 7 -6 17 -8 23 -5 14 9 42 -4 35 -16
-4 -6 -10 -5 -15 3 -4 7 -11 10 -16 6 -4 -5 -1 -12 7 -17 8 -6 10 -10 4 -10
-5 0 -14 4 -20 10 -5 5 -15 6 -24 0 -11 -7 -12 -12 -4 -20 8 -8 14 -8 18 -1 4
5 12 8 19 5 14 -5 57 30 57 46 0 6 5 10 11 10 6 0 -1 -17 -17 -38 -15 -20 -21
-32 -13 -25 9 7 20 8 29 3 8 -5 18 -6 22 -4 4 3 8 0 8 -7 0 -9 3 -9 14 0 11 9
15 9 19 -1 3 -8 6 -6 6 5 1 14 -4 17 -19 12 -15 -5 -18 -2 -15 14 2 12 -1 21
-7 21 -5 0 -8 -7 -5 -15 7 -16 -8 -31 -17 -17 -8 14 20 46 33 38 6 -4 9 -12 6
-17 -4 -5 3 -9 15 -9 12 0 19 4 16 9 -3 5 1 11 9 15 19 7 73 -38 57 -48 -7 -4
-12 -1 -12 8 0 16 -39 43 -41 29 -6 -35 -5 -52 3 -47 4 3 6 9 3 14 -3 5 0 12
6 16 8 4 9 3 5 -4 -4 -7 -2 -12 4 -12 6 0 8 -5 4 -12 -4 -7 -3 -8 4 -4 7 4 12
1 12 -6 0 -8 3 -9 8 -3 8 11 32 13 48 3 6 -4 11 -1 11 7 0 8 -3 12 -7 10 -4
-2 -6 5 -5 17 1 12 9 22 20 24 13 2 15 0 6 -9 -16 -16 -14 -32 2 -18 10 8 17
7 27 -2 10 -10 12 -9 8 3 -3 9 0 24 8 35 8 10 14 14 14 8 0 -7 -4 -15 -10 -18
-6 -4 -5 -11 3 -19 16 -18 28 -10 20 12 -4 10 2 7 14 -8 19 -22 23 -23 39 -10
10 8 15 10 11 4 -4 -7 0 -15 8 -18 9 -3 18 1 21 9 5 12 10 10 24 -8 10 -12 22
-18 26 -14 5 4 2 12 -6 18 -11 7 -9 8 9 6 14 -2 27 -9 29 -15 2 -7 9 -9 14 -6
7 4 8 2 4 -4 -3 -6 -15 -9 -26 -7 -24 5 -25 -1 -5 -21 10 -10 15 -11 15 -3 0
8 5 8 18 -2 15 -13 16 -12 3 4 -8 10 -9 17 -3 17 6 0 16 -8 21 -17 8 -14 10
-15 11 -3 0 13 1 13 11 0 9 -13 10 -13 8 0 -1 8 3 26 9 40 6 14 11 18 11 10 1
-9 -5 -22 -11 -29 -11 -11 -10 -13 4 -8 10 3 20 1 24 -5 4 -6 3 -8 -4 -4 -6 3
-13 2 -16 -3 -4 -5 2 -8 11 -7 20 3 24 26 8 39 -6 5 -3 7 8 3 11 -3 20 0 24
10 5 14 8 12 19 -7 13 -25 9 -43 -6 -34 -5 3 -6 13 -3 23 6 15 5 15 -10 3 -9
-7 -17 -15 -17 -16 0 -2 17 -13 37 -25 20 -12 32 -16 26 -8 -13 17 -10 61 5
66 6 2 19 -1 28 -6 15 -8 15 -9 0 -15 -10 -4 -15 -3 -11 3 3 6 -1 10 -10 10
-13 0 -14 -4 -4 -21 9 -17 8 -20 -2 -14 -7 5 -10 4 -5 -3 10 -16 85 28 79 48
-4 12 -3 12 5 2 5 -8 13 -13 18 -12 5 1 9 -3 11 -9 1 -7 -1 -7 -3 -2 -8 16
-43 -10 -37 -28 4 -13 3 -14 -5 -2 -9 12 -13 12 -26 2 -9 -8 -16 -19 -16 -25
0 -6 4 -5 9 3 6 9 10 10 16 2 5 -9 10 -9 21 0 11 9 14 9 14 -1 0 -8 3 -10 6
-7 4 3 15 2 25 -4 14 -7 17 -6 14 4 -4 9 5 13 29 14 29 0 34 -2 31 -19 -4 -19
-3 -19 14 -4 21 19 31 21 27 4 -1 -7 -1 -9 2 -5 2 4 11 2 20 -5 12 -10 14 -10
8 0 -4 6 -2 12 3 12 6 0 11 -6 11 -12 0 -10 2 -10 9 0 11 17 21 17 33 0 8 -10
9 -9 5 3 -7 21 11 39 29 32 10 -4 12 0 8 13 -4 14 -3 16 4 5 5 -7 8 -21 5 -30
-2 -9 6 -25 19 -36 16 -14 19 -15 9 -3 -7 9 -9 23 -5 29 5 8 3 9 -6 4 -9 -5
-11 -4 -6 3 11 18 27 14 24 -5 -2 -14 5 -18 30 -20 17 -1 32 3 32 8 0 6 -4 7
-10 4 -5 -3 -10 -1 -10 4 0 13 10 14 28 2 17 -11 17 -21 0 -32 -9 -6 -9 -9 -1
-9 6 0 15 5 19 11 4 8 9 7 16 -2 8 -11 9 -11 5 1 -2 8 -10 14 -17 12 -11 -3
-11 0 0 12 10 14 10 16 -6 16 -16 0 -16 2 -4 10 15 9 33 -7 24 -22 -9 -14 14
-9 30 7 9 9 17 11 21 5 3 -5 2 -10 -2 -10 -5 0 -9 -9 -10 -20 -1 -16 2 -20 18
-15 12 4 19 2 19 -7 0 -8 3 -9 8 -3 10 15 57 12 78 -5 18 -14 18 -14 5 2 -7
10 -10 18 -5 18 14 0 31 -14 37 -30 4 -11 6 -10 6 5 1 17 3 18 12 5 8 -12 10
-12 7 -1 -2 8 -12 15 -22 17 -25 4 -30 10 -12 17 8 3 26 -5 40 -18 14 -13 26
-20 26 -15 0 6 9 10 20 10 14 0 18 -5 13 -17 -5 -15 -3 -15 11 2 l18 20 -6
-20 -6 -20 16 20 c8 11 20 19 25 18 5 -2 9 2 9 7 0 6 -8 10 -17 10 -15 0 -15
2 -4 9 10 6 19 3 31 -11 15 -19 16 -19 30 -2 14 16 13 17 -3 11 -10 -4 -16 -3
-12 2 3 5 -1 11 -7 14 -7 2 -1 4 13 3 26 -1 30 -10 16 -33 -13 -21 11 -14 26
7 14 20 14 19 25 -6 11 -23 32 -25 32 -3 0 6 -5 7 -12 3 -7 -4 -8 -3 -4 4 5 9
14 7 32 -5 25 -16 26 -15 48 12 16 20 23 23 23 12 0 -9 -3 -14 -7 -12 -3 2
-11 -5 -18 -16 -7 -10 -8 -19 -3 -19 6 0 13 5 16 11 4 6 13 8 21 5 8 -3 14 -1
14 4 0 6 5 10 11 10 8 0 9 -4 0 -13 -6 -8 -7 -18 -3 -22 4 -5 1 -5 -7 0 -9 5
-12 4 -8 -2 3 -5 0 -10 -8 -10 -11 0 -12 4 -4 14 8 9 8 13 1 13 -6 0 -15 -7
-20 -16 -7 -12 -11 -13 -17 -5 -5 9 -10 9 -21 0 -11 -9 -17 -9 -29 1 -8 7 -15
9 -15 5 0 -4 -6 -2 -14 4 -9 8 -16 8 -20 2 -7 -10 -46 -11 -46 -1 0 4 -13 6
-30 6 -16 0 -28 -2 -25 -4 3 -3 0 -11 -7 -19 -8 -11 -7 -12 6 -7 9 3 16 10 16
15 0 5 5 9 11 9 5 0 8 -4 5 -8 -2 -4 22 -7 56 -6 42 1 61 -3 65 -12 3 -8 10
-11 17 -7 22 14 38 12 32 -5 -5 -15 -4 -15 7 -2 17 21 41 25 34 6 -4 -9 -1
-18 6 -22 7 -4 9 -4 5 1 -11 12 11 45 30 45 15 0 15 2 2 10 -9 6 -10 10 -3 10
6 0 15 -5 18 -10 3 -5 14 -10 23 -10 15 1 15 2 -2 15 -11 8 -16 15 -10 15 5 0
25 -14 44 -30 27 -22 31 -30 17 -30 -10 0 -16 4 -13 9 3 4 -10 7 -29 5 -22 -1
-33 1 -29 8 4 6 -2 5 -15 -1 -24 -13 -28 -23 -6 -15 8 4 15 1 15 -6 0 -10 3
-10 15 0 15 12 39 5 30 -10 -7 -11 36 0 54 14 12 9 13 8 8 -6 -3 -10 -1 -20 6
-24 7 -4 9 -4 5 1 -4 4 -1 20 7 35 8 15 11 31 7 36 -4 5 1 2 11 -5 9 -7 17 -9
17 -4 0 5 7 10 16 10 15 0 15 -1 0 -12 -8 -7 -13 -15 -9 -18 3 -4 12 -2 20 5
11 9 18 8 29 -4 14 -14 13 -15 -10 -13 -14 2 -26 0 -26 -5 0 -13 33 -21 44
-10 20 20 29 10 10 -12 l-19 -23 23 19 c12 11 22 25 22 33 0 18 15 16 31 -4
12 -14 12 -15 1 -9 -11 7 -12 4 -3 -13 13 -24 23 -28 15 -6 -4 10 0 15 14 15
16 0 20 5 17 20 -2 11 0 18 5 15 17 -11 53 -15 64 -7 20 12 35 10 29 -5 -5
-12 -7 -12 -14 -1 -5 7 -9 10 -10 6 -1 -5 -3 -12 -4 -18 -1 -5 -3 -14 -4 -20
0 -5 -6 -10 -12 -10 -8 0 -8 4 0 14 9 11 8 15 -5 20 -11 4 -15 2 -11 -7 3 -8
-1 -14 -8 -14 -7 0 -11 6 -8 14 3 7 1 13 -4 13 -5 0 -9 -9 -10 -21 -1 -13 3
-19 11 -16 8 3 19 0 25 -6 8 -8 16 -6 29 6 22 20 37 22 25 5 -10 -17 -14 -42
-5 -33 4 4 7 12 7 17 0 6 6 13 13 16 6 2 10 -2 9 -10 -2 -7 -2 -10 0 -5 8 13
23 7 24 -10 0 -15 2 -15 9 2 5 12 9 15 9 5 1 -11 4 -11 13 -2 19 19 32 14 17
-5 -13 -17 -13 -17 5 -3 18 14 19 13 13 -5 -7 -18 -6 -19 6 -3 8 10 16 15 19
12 4 -3 5 3 4 13 0 10 5 17 12 15 9 -2 12 4 7 17 -3 11 0 23 6 27 8 4 9 3 5
-4 -4 -6 0 -22 9 -35 13 -20 13 -24 0 -24 -8 0 -12 3 -10 7 2 4 -2 7 -9 7 -8
0 -12 -6 -9 -13 2 -7 12 -13 21 -13 9 0 24 -1 32 -3 8 -2 17 2 19 7 8 21 36
34 48 23 9 -7 18 -6 30 3 9 8 14 9 10 3 -4 -7 2 -11 18 -12 14 0 23 4 20 8 -2
3 2 7 8 7 7 0 14 -10 15 -21 1 -15 -1 -17 -7 -7 -5 8 -11 9 -15 3 -7 -11 22
-27 55 -31 5 0 7 -6 3 -13 -5 -7 -3 -8 6 -3 10 6 9 11 -5 21 -10 7 -22 11 -28
7 -6 -3 -7 -1 -3 5 5 8 15 8 32 1 22 -8 25 -7 21 5 -4 9 -2 18 2 21 5 3 8 -8
7 -24 -2 -29 -2 -29 24 -13 20 13 23 14 13 2 -9 -12 -7 -15 12 -15 15 0 20 4
14 10 -5 5 -9 14 -9 20 0 5 4 4 9 -4 5 -8 19 -16 31 -18 12 -2 28 -10 36 -18
22 -21 27 -19 13 8 -9 17 -9 20 1 10 7 -6 20 -9 29 -6 14 4 14 3 1 -6 -12 -9
-9 -11 16 -11 17 0 34 -3 38 -7 22 -22 56 3 39 29 -4 7 -1 8 6 4 7 -5 10 -14
7 -21 -6 -15 19 -40 28 -27 8 13 77 2 69 -12 -3 -6 4 -2 16 9 12 11 21 15 19
10 -2 -6 2 -11 7 -12 6 -1 9 4 7 12 -1 7 3 17 10 21 7 4 10 4 6 -1 -15 -16 11
-42 39 -39 15 1 28 3 28 4 0 2 10 4 23 5 16 2 21 -2 18 -11 -3 -8 -1 -14 4
-14 6 0 10 9 10 20 0 11 5 20 11 20 5 0 8 -4 5 -8 -2 -4 -1 -14 4 -22 7 -12
13 -11 31 5 12 11 19 15 16 9 -12 -21 21 -23 43 -4 21 18 56 17 44 -1 -8 -14
6 -11 21 4 11 12 31 14 78 8 5 -1 6 -5 2 -10 -3 -5 -1 -12 4 -15 5 -4 13 -2
16 4 5 8 11 7 22 -1 9 -8 17 -9 21 -3 10 14 31 11 42 -6 8 -12 10 -12 10 -1 0
11 3 11 15 1 8 -7 15 -8 15 -3 0 8 49 10 58 3 7 -7 28 -5 39 2 6 5 14 5 18 -2
9 -15 22 -12 29 6 3 8 2 12 -4 9 -6 -4 -7 1 -3 11 4 12 3 15 -6 10 -7 -5 -10
-15 -6 -25 5 -13 4 -14 -6 -3 -11 10 -10 15 4 29 15 16 17 15 30 -15 7 -18 16
-29 20 -26 3 4 2 15 -4 25 -5 11 -7 20 -4 20 27 6 49 1 53 -11 2 -11 1 -12 -5
-3 -5 7 -14 9 -23 3 -11 -7 -11 -11 -1 -24 8 -9 18 -16 24 -16 6 0 2 6 -8 14
-18 13 -18 14 8 9 20 -4 27 -1 27 11 0 9 4 16 8 16 4 0 8 -9 8 -19 0 -11 -4
-18 -7 -15 -4 2 -10 1 -13 -4 -2 -4 6 -8 19 -8 20 0 23 4 19 22 -3 12 -1 25 4
28 6 4 8 -2 5 -14 -3 -12 0 -20 6 -20 7 0 9 5 5 12 -4 7 -3 8 5 4 8 -5 9 -12
2 -19 -7 -9 6 -12 52 -12 34 0 67 4 74 8 6 4 13 1 16 -5 2 -7 8 -10 12 -6 4 4
2 14 -4 22 -9 11 -9 16 0 22 7 4 9 3 6 -3 -8 -13 23 -40 45 -40 9 0 16 3 14 6
-2 3 3 12 11 20 13 12 14 11 9 -5 -5 -17 -1 -19 37 -19 23 0 48 4 56 9 10 6
12 5 7 -2 -4 -7 -1 -12 8 -12 9 0 13 6 10 14 -3 8 -1 17 4 20 5 3 9 -2 8 -11
-1 -13 10 -17 54 -18 32 -2 58 2 62 9 5 8 8 8 8 0 0 -15 60 -16 60 -1 0 7 4 6
10 -3 9 -13 10 -13 10 0 0 9 3 11 8 5 9 -12 106 -19 98 -7 -3 5 1 9 9 9 8 0
12 -4 9 -9 -3 -4 2 -8 11 -8 9 0 14 4 11 8 -3 5 1 9 9 9 8 0 12 -4 9 -9 -3 -4
2 -8 11 -8 9 0 14 4 11 8 -3 5 1 9 9 9 8 0 12 -4 9 -9 -3 -4 2 -8 11 -8 9 0
13 5 9 11 -5 8 -1 8 14 0 25 -13 45 -14 37 -2 -3 5 -1 13 5 16 6 4 9 1 8 -7
-4 -17 43 -23 53 -6 5 8 9 8 9 2 0 -15 80 -15 99 0 11 8 13 8 8 0 -8 -13 240
-14 261 -1 7 5 12 4 12 -2 0 -15 33 -14 48 1 9 9 12 9 12 0 0 -7 5 -12 11 -12
6 0 9 6 6 14 -3 7 0 19 6 26 9 10 8 12 -5 7 -10 -4 -18 -2 -18 4 0 6 8 9 18 7
11 -2 16 -12 15 -29 -2 -23 1 -25 45 -24 26 0 53 4 59 8 6 4 15 3 18 -3 9 -15
37 9 31 27 -3 7 -1 13 4 13 6 0 10 -7 10 -15 0 -22 28 -18 35 6 5 16 10 18 21
8 11 -9 14 -9 14 0 0 16 -46 61 -61 61 -7 0 -10 3 -7 6 4 3 16 0 28 -6 18 -9
24 -9 30 1 5 8 8 4 9 -12 0 -38 7 -68 16 -76 4 -5 5 -2 1 5 -5 8 0 12 16 12
13 0 43 17 68 39 24 21 49 37 55 35 7 -3 11 8 11 28 -1 21 3 32 12 31 14 -3
16 13 3 22 -5 3 -16 -3 -23 -14 -12 -16 -16 -17 -32 -6 -10 8 -25 11 -34 8
-18 -7 -17 -5 12 17 13 10 17 10 12 3 -4 -7 -2 -13 3 -13 6 0 11 5 11 10 0 6
5 10 11 10 8 0 8 -5 -1 -15 -7 -8 -8 -15 -2 -15 5 0 15 6 21 14 12 14 79 15
89 0 8 -10 62 -15 62 -5 0 3 -9 12 -21 19 -12 8 -18 9 -14 3 3 -6 -1 -11 -9
-11 -9 0 -16 4 -16 9 0 4 -10 8 -22 7 -13 -1 -26 3 -30 9 -5 6 -8 5 -8 -4 0
-11 -3 -11 -17 0 -11 9 -14 10 -9 2 5 -9 -1 -11 -22 -7 -19 4 -39 0 -55 -11
-22 -14 -24 -19 -14 -36 6 -10 19 -19 27 -19 13 0 13 1 0 10 -8 5 -10 10 -5
10 6 0 16 -4 24 -9 11 -7 9 -10 -9 -16 -18 -6 -28 -1 -46 21 -13 16 -23 34
-23 39 0 6 3 5 6 -2 3 -10 9 -10 24 0 23 14 25 29 3 20 -9 -3 -20 0 -25 8 -7
12 -9 12 -9 -1 0 -13 -1 -13 -10 0 -7 11 -8 9 -6 -11 1 -14 15 -42 31 -63 15
-20 25 -39 21 -43 -3 -3 -6 -2 -6 3 0 5 -13 25 -30 44 -16 19 -29 39 -29 45 3
24 -2 32 -18 32 -36 0 -44 3 -37 15 4 6 3 8 -4 4 -6 -3 -8 -19 -6 -34 5 -26 4
-26 -9 -7 -8 10 -13 25 -10 32 3 7 -2 13 -10 13 -9 0 -22 3 -31 6 -9 3 -16 1
-16 -6 0 -6 4 -9 8 -6 4 2 14 1 22 -4 12 -8 13 -11 2 -22 -11 -11 -13 -10 -10
2 2 8 -3 15 -9 16 -7 1 -17 2 -23 3 -5 0 -7 8 -3 16 7 19 -17 16 -32 -3 -8
-11 -11 -9 -12 5 -1 12 18 29 58 52 139 81 262 258 282 407 3 20 9 40 14 44 7
8 90 22 123 22 24 0 174 45 224 67 71 31 171 100 188 130 20 35 16 202 -6 235
-8 13 -17 52 -20 87 -15 175 -16 222 -5 235 8 10 7 29 -4 76 -9 35 -25 102
-36 151 -11 48 -27 102 -35 120 -8 17 -27 86 -42 151 -22 93 -34 126 -56 150
-15 16 -25 32 -22 35 3 3 10 -2 15 -12 6 -9 14 -15 19 -12 13 8 -26 104 -53
134 -68 74 -276 172 -675 316 -300 109 -277 97 -344 174 -25 29 -38 54 -39 75
-3 90 -15 118 -59 141 -17 9 -50 17 -74 18 -41 2 -49 8 -127 92 -122 132 -551
560 -644 642 -82 74 -277 232 -330 269 -92 64 -274 144 -442 195 -75 22 -81
29 -74 86 1 6 -4 15 -10 19 -8 4 -10 -6 -6 -35 2 -22 1 -41 -3 -41 -4 0 -61
13 -126 30 -114 28 -372 83 -450 96 -20 3 -46 8 -58 10 -11 3 -86 15 -166 29
-195 32 -307 44 -530 61 -41 3 -93 10 -115 16 -34 10 -181 19 -188 12z m2503
-1030 c0 -8 -19 -13 -24 -6 -3 5 1 9 9 9 8 0 15 -2 15 -3z m-478 -47 c10 -15
18 -31 18 -35 0 -4 -5 1 -11 10 -12 21 -40 13 -32 -9 5 -12 7 -12 15 -1 6 9 7
5 3 -12 -6 -20 -5 -23 5 -13 10 9 17 7 30 -10 16 -19 20 -20 35 -7 17 14 17
14 5 -7 -8 -12 -18 -19 -23 -16 -5 3 -8 0 -5 -7 6 -20 28 -24 28 -6 0 21 20
31 33 16 9 -10 8 -12 -5 -7 -21 7 -23 -5 -5 -33 10 -17 9 -22 -2 -29 -8 -5
-21 -6 -30 -3 -14 5 -14 3 -3 -11 13 -15 16 -15 40 1 14 9 23 11 19 5 -9 -14
-1 -16 48 -15 20 1 25 -2 16 -8 -8 -4 -21 -6 -30 -3 -13 4 -13 2 2 -10 9 -8
17 -19 17 -25 0 -12 38 -4 47 11 4 6 -2 8 -15 5 -12 -4 -22 -2 -22 3 0 11 37
12 44 1 10 -16 -12 -33 -43 -34 -22 -1 -29 -4 -22 -11 7 -7 7 -15 0 -24 -7 -8
-8 -13 -1 -13 5 0 17 10 26 23 8 12 13 15 10 6 -3 -10 1 -16 11 -16 8 0 14 5
12 11 -2 5 5 18 15 28 23 23 36 24 16 1 -20 -23 -35 -68 -19 -59 6 4 11 13 11
20 0 8 7 19 15 26 10 9 15 9 15 1 0 -6 -4 -11 -9 -11 -5 0 -9 -17 -8 -39 1
-33 4 -38 24 -37 13 0 21 6 19 11 -2 6 -8 9 -13 8 -6 -1 -10 9 -10 22 0 14 3
25 8 25 5 0 8 -3 8 -7 -4 -22 2 -33 14 -27 6 4 9 4 5 -1 -4 -4 -3 -14 3 -22 9
-10 8 -13 -1 -13 -19 0 -3 -13 20 -17 20 -3 20 -2 4 25 l-16 27 20 -22 c11
-12 23 -19 27 -15 3 4 6 3 5 -3 -5 -22 1 -36 12 -29 7 4 8 3 4 -4 -5 -9 -13
-9 -26 -2 -25 14 -30 13 -24 -5 4 -8 11 -12 17 -8 6 4 7 1 3 -6 -6 -8 -2 -11
10 -9 11 2 24 12 31 23 l12 20 0 -20 c0 -11 2 -35 4 -53 4 -27 2 -31 -10 -20
-8 6 -12 21 -9 32 4 18 3 19 -7 5 -10 -14 -14 -14 -25 -3 -7 7 -19 11 -27 8
-8 -4 -15 -1 -15 6 0 8 -4 9 -12 3 -14 -10 -81 -10 -173 2 -33 4 -70 7 -82 6
-21 -1 -30 18 -24 53 1 4 -2 13 -7 20 -8 10 -12 33 -15 84 0 12 -4 22 -8 22
-4 0 -6 11 -4 25 1 14 -2 28 -8 32 -6 4 -3 12 8 20 16 11 16 13 3 13 -25 0
-27 24 -4 38 20 12 20 12 1 10 -16 -2 -19 2 -18 20 2 13 -1 21 -5 18 -5 -3 -8
5 -7 17 1 12 -2 28 -8 35 -6 8 -6 12 2 12 7 0 9 5 6 10 -4 6 -1 9 7 8 7 -2 21
-15 30 -31z m18 23 c0 -6 10 -15 23 -20 20 -8 20 -9 2 -9 -11 -1 -26 8 -33 19
-7 12 -8 20 -2 20 5 0 10 -5 10 -10z m62 -8 c-4 -11 -2 -13 9 -7 14 9 14 9
-19 -35 -2 -3 -3 2 -2 10 4 29 0 41 -12 34 -6 -4 -8 -3 -5 3 10 16 36 11 29
-5z m403 -11 c3 -5 2 -12 -3 -15 -5 -3 -9 1 -9 9 0 17 3 19 12 6z m50 -1 c-3
-5 -12 -10 -18 -10 -7 0 -6 4 3 10 19 12 23 12 15 0z m-483 -38 c-7 -2 -12 -8
-12 -13 0 -4 8 -6 18 -2 13 5 14 3 5 -7 -15 -16 -32 -5 -30 19 1 12 6 17 16
13 10 -4 11 -7 3 -10z m39 -9 c-12 -20 -14 -14 -5 12 4 9 9 14 11 11 3 -2 0
-13 -6 -23z m135 2 c-1 -8 -5 -17 -8 -21 -5 -4 -4 16 1 34 3 9 9 -1 7 -13z
m-90 -37 c-9 -5 -23 -5 -32 0 -12 6 -7 9 16 9 23 0 28 -3 16 -9z m31 -26 c-7
-10 -13 -10 -15 -3 -2 6 -9 8 -14 5 -6 -4 -8 -3 -5 2 3 5 15 10 26 10 16 0 18
-3 8 -14z m-34 -19 c-7 -2 -19 -2 -25 0 -7 3 -2 5 12 5 14 0 19 -2 13 -5z m37
-13 c0 -5 -4 -10 -10 -10 -5 0 -10 5 -10 10 0 6 5 10 10 10 6 0 10 -4 10 -10z
m511 -7 c12 -16 12 -17 -2 -6 -9 7 -20 9 -24 5 -5 -4 -5 -1 -1 6 9 16 11 15
27 -5z m-537 -19 c8 -21 -7 -17 -21 6 -11 16 -10 18 1 14 8 -3 17 -12 20 -20z
m59 -4 c9 -11 13 -20 7 -20 -5 0 -14 9 -20 20 -6 11 -9 20 -8 20 2 0 11 -9 21
-20z m32 10 c-3 -5 -12 -10 -18 -10 -7 0 -6 4 3 10 19 12 23 12 15 0z m25 -20
c-8 -5 -19 -10 -25 -10 -5 0 -3 5 5 10 8 5 20 10 25 10 6 0 3 -5 -5 -10z m67
-25 c0 -8 -4 -12 -9 -9 -5 3 -6 10 -3 15 9 13 12 11 12 -6z m383 -9 c0 -3 -4
-8 -10 -11 -5 -3 -10 -1 -10 4 0 6 5 11 10 11 6 0 10 -2 10 -4z m-400 -27 c0
-5 -4 -9 -8 -9 -5 0 -9 7 -9 15 0 8 4 12 9 9 4 -3 8 -9 8 -15z m30 -13 c0 -2
-8 -10 -17 -17 -16 -13 -17 -12 -4 4 13 16 21 21 21 13z m415 -6 c3 -6 -1 -7
-9 -4 -18 7 -21 14 -7 14 6 0 13 -4 16 -10z m56 -17 c13 -16 12 -17 -3 -4 -10
7 -18 15 -18 17 0 8 8 3 21 -13z m-437 -1 c2 -4 -4 -8 -14 -8 -10 0 -16 4 -14
8 3 4 9 8 14 8 5 0 11 -4 14 -8z m-44 -22 c0 -5 -7 -7 -15 -4 -8 4 -15 8 -15
10 0 2 7 4 15 4 8 0 15 -4 15 -10z m24 -16 c3 -8 2 -12 -4 -9 -6 3 -10 10 -10
16 0 14 7 11 14 -7z m29 -9 c-4 -11 0 -14 13 -9 15 5 16 4 4 -4 -18 -14 -29
-7 -27 18 1 10 5 17 9 14 4 -3 5 -11 1 -19z m61 -36 c3 -3 -4 -5 -14 -6 -11
-1 -20 2 -20 7 0 8 25 8 34 -1z m443 -3 c4 -4 1 -6 -7 -4 -9 2 -14 -3 -12 -12
2 -8 0 -11 -4 -7 -14 13 -12 35 2 33 7 -1 17 -6 21 -10z m-425 -38 c-4 -16 -2
-19 8 -13 9 6 11 4 5 -5 -6 -10 -11 -9 -22 5 -10 15 -10 20 0 27 6 4 13 8 14
8 0 0 -1 -10 -5 -22z m-22 -23 c14 -19 14 -19 -2 -6 -10 7 -18 18 -18 24 0 6
1 8 3 6 1 -2 9 -13 17 -24z m470 -35 c0 -5 -2 -10 -4 -10 -3 0 -8 5 -11 10 -3
6 -1 10 4 10 6 0 11 -4 11 -10z m-615 -30 c-3 -5 -12 -10 -18 -10 -7 0 -6 4 3
10 19 12 23 12 15 0z m610 -9 c3 -5 2 -12 -3 -15 -5 -3 -9 1 -9 9 0 17 3 19
12 6z m-40 -41 c3 -5 1 -10 -4 -10 -6 0 -11 5 -11 10 0 6 2 10 4 10 3 0 8 -4
11 -10z m42 -25 c0 -8 -4 -12 -9 -9 -5 3 -6 10 -3 15 9 13 12 11 12 -6z m58
-15 c3 -5 1 -10 -4 -10 -6 0 -11 5 -11 10 0 6 2 10 4 10 3 0 8 -4 11 -10z
m-4868 -2204 c45 -2 87 -7 93 -11 5 -3 52 -8 103 -11 141 -6 374 -22 434 -30
26 -3 44 -11 48 -22 3 -9 3 -13 -1 -9 -4 4 -13 2 -21 -5 -11 -9 -13 -8 -11 1
2 8 -8 14 -24 16 -21 3 -26 0 -21 -13 4 -14 3 -14 -5 -3 -12 17 -42 24 -42 10
0 -5 -5 -9 -11 -9 -5 0 -7 6 -3 13 5 7 0 6 -11 -3 -10 -8 -16 -10 -12 -4 4 7
0 15 -9 18 -8 3 -12 2 -9 -3 3 -5 1 -12 -5 -16 -5 -3 -10 -2 -10 4 0 7 -8 7
-25 1 -20 -8 -25 -6 -25 6 0 15 -3 14 -26 -1 -15 -9 -24 -13 -20 -7 3 5 -5 12
-18 14 -19 4 -23 1 -18 -11 4 -12 0 -11 -18 4 -13 11 -20 14 -16 8 4 -7 3 -13
-1 -13 -5 0 -15 6 -22 13 -10 8 -12 8 -7 0 3 -6 2 -14 -4 -18 -5 -3 -10 -2
-10 4 0 5 -8 8 -17 6 -10 -1 -26 2 -37 7 -13 7 -16 7 -11 -2 5 -8 1 -11 -11
-9 -11 2 -25 0 -31 -4 -8 -5 -13 -3 -13 4 0 8 -4 8 -15 -1 -11 -9 -15 -9 -15
-1 0 9 -5 9 -20 1 -14 -8 -20 -8 -20 0 0 6 -5 8 -10 5 -6 -4 -8 -10 -5 -15 3
-5 1 -12 -5 -15 -6 -4 -10 -3 -9 2 3 20 -2 25 -15 14 -11 -9 -16 -9 -22 0 -4
8 -3 9 4 5 7 -4 12 -2 12 3 0 13 -17 14 -24 2 -3 -5 -15 -11 -26 -14 -11 -3
-18 -1 -15 3 3 5 1 11 -5 15 -5 3 -10 -1 -10 -10 0 -10 -4 -13 -12 -8 -16 9
-88 11 -88 1 0 -3 6 -9 13 -11 9 -4 9 -6 0 -6 -6 -1 -15 4 -18 9 -9 15 -27 12
-19 -2 4 -7 4 -10 -1 -6 -4 4 -14 3 -21 -3 -16 -13 -11 21 11 74 12 29 21 36
47 39 18 2 38 2 43 1 6 -1 47 -4 92 -7z m4804 -64 c29 -68 102 -172 151 -217
49 -45 103 -85 115 -85 4 0 19 -10 33 -21 22 -18 12 -17 -21 3 -3 1 -14 -4
-24 -12 -11 -8 -16 -10 -12 -3 4 6 3 14 -3 18 -5 3 -10 -2 -10 -12 -1 -15 -4
-13 -16 7 -8 14 -13 17 -10 8 3 -10 1 -20 -4 -23 -6 -4 -10 0 -10 7 0 7 -11
13 -23 13 -19 0 -23 -5 -21 -23 1 -12 -2 -20 -6 -17 -5 3 -7 11 -5 18 3 7 1
19 -5 27 -8 13 -11 13 -22 1 -10 -10 -10 -12 0 -7 6 4 12 5 12 2 0 -3 -9 -10
-19 -15 -16 -9 -18 -8 -14 12 4 22 4 22 -13 2 -14 -17 -16 -17 -11 -2 4 9 2
17 -3 17 -6 0 -10 -6 -10 -12 0 -10 -2 -10 -9 0 -4 8 -17 12 -27 11 -11 -2
-25 0 -32 4 -7 5 -14 2 -18 -7 -5 -14 -8 -14 -21 -1 -8 9 -18 13 -23 10 -5 -3
-10 -2 -13 2 -2 5 -3 3 -2 -2 2 -6 -11 -11 -27 -12 -20 0 -26 2 -17 7 7 5 17
6 23 3 5 -3 6 -1 2 5 -5 9 -15 8 -36 -3 -23 -12 -28 -12 -24 -2 3 10 -5 13
-30 13 -27 -1 -32 -4 -24 -14 8 -9 7 -11 -6 -6 -9 3 -16 9 -16 13 0 4 -7 8
-15 8 -9 0 -14 -6 -11 -13 3 -8 1 -16 -5 -19 -5 -4 -9 -3 -8 2 4 23 -4 32 -30
31 -15 -1 -33 2 -39 6 -6 3 -14 1 -17 -4 -5 -8 -14 -5 -27 7 -21 18 -21 18 -8
-6 l12 -24 -29 21 -30 21 3 -29 c2 -17 0 -30 -5 -30 -5 0 -8 10 -7 23 1 16 -4
21 -16 19 -10 -2 -18 3 -18 10 0 9 -3 9 -11 -2 -8 -11 -12 -12 -16 -2 -7 19
-26 14 -19 -5 6 -14 3 -14 -15 3 -25 23 -22 22 -42 6 -17 -14 -41 -7 -32 9 4
5 1 9 -4 9 -6 0 -11 -5 -11 -11 0 -5 -4 -7 -10 -4 -5 3 -18 1 -29 -5 -27 -14
-23 3 23 101 19 42 38 95 42 118 4 23 10 43 14 46 26 16 154 22 268 12 60 -6
72 -4 72 8 0 12 15 15 73 16 75 1 105 4 114 13 3 2 18 4 35 4 26 -1 33 -7 49
-46z m-4876 -31 c-9 -8 -36 -10 -30 -2 2 4 11 8 20 8 8 0 13 -3 10 -6z m1465
-19 c0 -12 -3 -12 -15 -2 -12 10 -15 10 -15 0 0 -8 -3 -11 -6 -7 -9 9 3 24 21
24 8 0 15 -7 15 -15z m415 3 c61 -4 123 -8 139 -10 27 -3 140 -12 256 -20 316
-22 488 -22 588 -1 20 4 26 -1 38 -32 8 -20 19 -44 24 -54 6 -11 5 -18 -6 -22
-9 -3 -12 -1 -9 4 3 6 2 10 -4 10 -5 0 -12 -4 -16 -10 -3 -5 -15 -6 -28 -1
-12 4 -28 6 -36 3 -10 -3 -11 0 -5 9 7 12 5 12 -9 0 -12 -9 -17 -10 -17 -2 0
7 -5 9 -12 5 -17 -11 -59 -14 -53 -4 6 9 -25 19 -43 13 -6 -3 -10 -9 -6 -14 9
-15 -3 -10 -17 8 -12 14 -12 16 0 8 10 -6 12 -4 6 5 -6 10 -12 7 -27 -11 -15
-20 -17 -21 -11 -4 6 17 5 18 -9 7 -13 -10 -19 -10 -31 3 -20 20 -28 19 -20
-2 5 -15 3 -14 -10 2 -13 15 -16 16 -17 5 0 -10 -3 -11 -8 -4 -4 6 -14 11 -22
12 -89 3 -109 6 -103 16 4 6 -1 5 -10 -3 -13 -10 -17 -10 -17 -1 0 10 -3 10
-15 0 -12 -10 -15 -10 -15 1 0 10 -3 10 -12 1 -9 -9 -15 -7 -25 6 -12 14 -14
14 -10 1 3 -9 -1 -16 -9 -16 -7 0 -11 4 -8 8 2 4 0 10 -6 14 -5 3 -10 0 -11
-7 0 -7 -4 -4 -9 7 -8 18 -9 18 -10 -5 -2 -18 -4 -20 -7 -7 -4 14 -8 15 -18 7
-9 -8 -15 -8 -20 0 -3 6 -11 8 -16 5 -5 -4 -9 2 -10 12 -1 13 -3 11 -9 -7 -6
-19 -8 -20 -9 -6 -1 16 -3 17 -18 5 -11 -10 -14 -10 -9 -1 8 13 9 13 -49 15
-22 1 -43 6 -47 12 -4 5 -8 1 -8 -10 0 -15 -3 -17 -9 -7 -5 8 -31 15 -63 16
-31 2 -60 6 -67 10 -6 4 -11 2 -11 -5 0 -8 -3 -9 -13 0 -8 6 -17 8 -20 4 -4
-3 -7 -1 -7 6 0 7 -5 9 -10 6 -8 -5 -7 -11 0 -20 10 -12 7 -12 -13 -2 -14 6
-24 14 -22 17 2 3 -5 7 -16 7 -18 2 -19 0 -7 -15 11 -15 11 -15 -3 -5 -9 7
-20 9 -24 5 -5 -4 -5 -1 -1 6 5 8 0 12 -16 13 -13 0 -33 2 -45 3 -13 2 -23 -2
-23 -8 0 -7 -3 -7 -8 -1 -4 6 -14 10 -22 10 -8 0 -18 -4 -22 -10 -5 -6 -8 -6
-8 2 0 7 -12 10 -30 8 -16 -2 -30 0 -30 6 0 6 -7 6 -20 -1 -12 -6 -20 -7 -20
-1 0 5 -8 11 -17 13 -31 6 278 1 392 -7z m-2950 -17 c5 4 5 1 1 -6 -4 -7 -2
-19 4 -27 6 -8 9 -19 5 -24 -3 -7 0 -8 9 -5 9 3 13 10 10 15 -3 5 0 9 5 9 14
0 14 -6 1 -30 -12 -22 -44 -15 -36 7 4 8 -4 29 -16 46 -12 18 -15 26 -7 20 9
-7 20 -9 24 -5z m29 -13 c-4 -8 -8 -15 -10 -15 -2 0 -4 7 -4 15 0 8 4 15 10
15 5 0 7 -7 4 -15z m59 -22 c-5 -12 -3 -14 8 -8 8 5 11 5 6 -1 -5 -5 -10 -7
-11 -4 -1 3 -9 -2 -18 -10 -9 -8 -13 -19 -10 -24 3 -5 0 -6 -6 -2 -8 5 -5 16
10 37 25 33 30 36 21 12z m19 -40 c-6 -3 -10 -8 -8 -12 3 -4 -1 -8 -9 -8 -8 0
-15 2 -15 5 0 9 35 30 40 25 3 -3 -1 -8 -8 -10z m-128 -5 c-3 -4 -9 -8 -15 -8
-5 0 -9 4 -9 8 0 5 7 9 15 9 8 0 12 -4 9 -9z m934 -13 c-3 -3 -9 2 -12 12 -6
14 -5 15 5 6 7 -7 10 -15 7 -18z m183 -12 c13 -16 12 -17 -3 -4 -10 7 -18 15
-18 17 0 8 8 3 21 -13z m-56 -3 c3 -6 -1 -7 -9 -4 -18 7 -21 14 -7 14 6 0 13
-4 16 -10z m147 -22 c-4 -16 -2 -19 8 -13 9 6 11 4 5 -4 -10 -18 -29 3 -22 23
9 24 16 19 9 -6z m101 7 c-3 -9 -8 -14 -10 -11 -3 3 -2 9 2 15 9 16 15 13 8
-4z m-360 -20 c-10 -8 -20 -11 -23 -8 -3 3 1 8 8 10 6 3 10 9 7 14 -4 5 1 6
10 3 14 -6 14 -8 -2 -19z m147 21 c0 -2 -7 -7 -16 -10 -8 -3 -12 -2 -9 4 6 10
25 14 25 6z m47 -18 c-3 -8 -6 -5 -6 6 -1 11 2 17 5 13 3 -3 4 -12 1 -19z
m228 13 c3 -5 2 -12 -3 -15 -5 -3 -9 1 -9 9 0 17 3 19 12 6z m505 3 c0 -8 -19
-13 -24 -6 -3 5 1 9 9 9 8 0 15 -2 15 -3z m-545 -13 c3 -5 2 -12 -3 -15 -5 -3
-9 1 -9 9 0 17 3 19 12 6z m-300 -11 c-3 -5 -1 -10 5 -10 21 0 4 -25 -17 -26
-19 -1 -20 2 -11 22 6 13 15 24 20 24 5 0 6 -4 3 -10z m60 -11 c-6 -16 -4 -20
6 -14 8 4 4 -3 -8 -16 -26 -26 -46 -16 -33 16 6 14 9 15 10 5 1 -9 5 -6 10 8
12 28 24 29 15 1z m190 -9 c4 -6 16 -8 28 -5 20 5 20 5 4 -5 -13 -8 -22 -9
-31 -1 -13 11 -26 5 -26 -12 0 -6 3 -7 6 -4 4 3 14 2 23 -2 10 -6 23 -4 35 5
10 7 23 11 27 8 5 -3 9 3 10 13 0 10 3 13 6 6 2 -7 -3 -23 -11 -35 -9 -12 -16
-17 -16 -10 0 6 -5 12 -11 12 -5 0 -8 -4 -5 -8 2 -4 -6 -8 -20 -8 -13 0 -24 4
-24 9 0 4 -4 6 -9 2 -14 -8 -25 15 -12 28 7 7 5 14 -7 24 -15 13 -15 13 5 3
12 -5 25 -15 28 -20z m20 12 c-3 -3 -11 0 -18 7 -9 10 -8 11 6 5 10 -3 15 -9
12 -12z m145 8 c-8 -5 -22 -9 -30 -9 -10 0 -8 3 5 9 27 12 43 12 25 0z m61
-13 c-10 -9 -11 -8 -5 6 3 10 9 15 12 12 3 -3 0 -11 -7 -18z m283 15 c2 -4 -5
-9 -17 -9 -17 -2 -19 0 -7 7 18 12 18 12 24 2z m-660 -23 c-3 -5 2 -9 11 -9 9
0 13 5 10 10 -3 6 -1 10 4 10 13 0 14 -11 3 -25 -13 -18 -29 -14 -40 10 -9 20
-9 23 3 18 8 -3 12 -9 9 -14z m457 12 c0 10 2 11 6 1 2 -6 10 -9 16 -5 7 3 8
2 4 -2 -13 -15 -36 -14 -49 3 -12 15 -11 16 5 3 14 -11 17 -11 18 0z m-351
-11 c0 -5 -8 -10 -17 -10 -15 0 -16 2 -3 10 19 12 20 12 20 0z m229 -13 c0 -9
-2 -8 -6 1 -2 6 -10 9 -15 6 -7 -4 -8 -2 -4 5 9 13 26 5 25 -12z m91 2 c0 -5
-4 -9 -8 -9 -5 0 -9 7 -9 15 0 8 4 12 9 9 4 -3 8 -9 8 -15z m176 4 c-1 -7 -6
-16 -11 -20 -4 -4 -5 -3 -1 4 3 6 -2 16 -11 22 -16 9 -16 10 3 8 12 0 21 -7
20 -14z m201 2 c0 -8 -4 -12 -9 -9 -5 3 -6 10 -3 15 9 13 12 11 12 -6z m64
-12 c13 -16 12 -17 -3 -4 -17 13 -22 21 -14 21 2 0 10 -8 17 -17z m-321 3 c0
-3 -4 -8 -10 -11 -5 -3 -10 -1 -10 4 0 6 5 11 10 11 6 0 10 -2 10 -4z m124
-11 c-8 -20 6 -19 23 3 13 15 13 15 3 -5 -6 -13 -15 -23 -20 -23 -13 0 -22 18
-15 30 9 15 15 12 9 -5z m291 5 c3 -5 1 -10 -4 -10 -6 0 -11 5 -11 10 0 6 2
10 4 10 3 0 8 -4 11 -10z m-443 -52 c-4 -4 -9 7 -9 25 -2 30 -2 31 8 8 5 -14
6 -28 1 -33z m282 39 c3 4 6 2 6 -4 0 -15 -49 -11 -54 4 -4 9 1 10 18 3 13 -5
27 -6 30 -3z m-76 -22 c-3 -3 -9 2 -12 12 -6 14 -5 15 5 6 7 -7 10 -15 7 -18z
m222 -10 c0 -5 -5 -3 -10 5 -5 8 -10 20 -10 25 0 6 5 3 10 -5 5 -8 10 -19 10
-25z m140 23 c0 -6 -3 -8 -7 -5 -3 4 -14 0 -24 -9 -13 -12 -19 -12 -25 -3 -4
7 -3 10 3 6 6 -4 16 0 23 8 15 18 30 20 30 3z m-217 -32 c7 -18 -8 -42 -17
-27 -4 6 -2 11 4 11 7 0 6 5 -2 14 -7 8 -17 11 -22 8 -5 -3 -6 0 -2 6 8 13 32
6 39 -12z m457 14 c0 -5 -5 -10 -11 -10 -5 0 -7 5 -4 10 3 6 8 10 11 10 2 0 4
-4 4 -10z m35 0 c3 -5 1 -10 -4 -10 -6 0 -11 5 -11 10 0 6 2 10 4 10 3 0 8 -4
11 -10z m34 -16 c-6 -8 -17 -14 -23 -14 -6 0 -3 5 7 11 9 6 14 15 11 21 -4 7
-2 8 5 4 9 -6 9 -11 0 -22z m131 22 c0 -3 -4 -8 -10 -11 -5 -3 -10 -1 -10 4 0
6 5 11 10 11 6 0 10 -2 10 -4z m-265 -18 c5 4 5 1 1 -6 -6 -10 -11 -10 -22 -1
-8 6 -14 14 -14 16 0 3 6 0 13 -6 8 -6 18 -7 22 -3z m3243 -13 c-3 -3 -9 2
-12 12 -6 14 -5 15 5 6 7 -7 10 -15 7 -18z m142 15 c0 -5 -2 -10 -4 -10 -3 0
-8 5 -11 10 -3 6 -1 10 4 10 6 0 11 -4 11 -10z m-3480 -10 c0 -5 -4 -10 -10
-10 -5 0 -10 5 -10 10 0 6 5 10 10 10 6 0 10 -4 10 -10z m300 -5 c-10 -12 -10
-15 0 -15 8 0 11 -3 7 -6 -3 -3 -11 -3 -17 1 -8 5 -8 11 1 21 6 8 14 14 16 14
3 0 0 -7 -7 -15z m-170 -14 c-7 -13 -7 -22 0 -26 5 -3 10 2 10 11 0 10 3 15 6
11 10 -10 -6 -44 -20 -44 -9 0 -12 7 -8 16 4 13 1 12 -16 -3 -20 -17 -27 -15
-23 7 2 12 -11 8 -30 -9 -13 -12 -17 -12 -16 -2 2 7 6 14 10 15 4 2 22 10 40
18 25 13 28 13 14 1 -11 -8 -14 -17 -8 -20 6 -4 18 5 27 19 19 29 29 34 14 6z
m-144 -18 c-2 -3 -8 -5 -13 -5 -4 0 -13 -4 -18 -8 -13 -11 -43 6 -31 17 5 4
11 3 13 -4 4 -10 7 -10 18 0 7 7 10 17 7 22 -3 6 2 4 11 -4 10 -8 15 -16 13
-18z m44 12 c-14 -17 -30 -20 -30 -4 0 5 5 7 10 4 6 -3 10 -1 10 4 0 6 5 11
11 11 8 0 8 -5 -1 -15z m150 5 c0 -5 -4 -10 -10 -10 -5 0 -10 5 -10 10 0 6 5
10 10 10 6 0 10 -4 10 -10z m165 0 c-3 -5 -12 -10 -18 -10 -7 0 -6 4 3 10 19
12 23 12 15 0z m40 0 c3 -6 -1 -7 -9 -4 -18 7 -21 14 -7 14 6 0 13 -4 16 -10z
m395 0 c0 -5 -5 -10 -11 -10 -5 0 -7 5 -4 10 3 6 8 10 11 10 2 0 4 -4 4 -10z
m2496 -16 c1 -9 0 -13 -4 -10 -3 4 -7 14 -8 22 -1 9 0 13 4 10 3 -4 7 -14 8
-22z m38 18 c3 -5 -1 -9 -9 -9 -8 0 -12 4 -9 9 3 4 7 8 9 8 2 0 6 -4 9 -8z
m166 -2 c0 -5 -2 -10 -4 -10 -3 0 -8 5 -11 10 -3 6 -1 10 4 10 6 0 11 -4 11
-10z m40 0 c0 -5 -2 -10 -4 -10 -3 0 -8 5 -11 10 -3 6 -1 10 4 10 6 0 11 -4
11 -10z m145 0 c-3 -5 -12 -10 -18 -10 -7 0 -6 4 3 10 19 12 23 12 15 0z
m-3210 -12 c5 4 5 1 1 -5 -10 -18 -23 -16 -30 3 -5 13 -4 14 7 6 8 -7 18 -8
22 -4z m83 -13 c-3 -3 -9 2 -12 12 -6 14 -5 15 5 6 7 -7 10 -15 7 -18z m-281
9 c-3 -3 -12 -4 -19 -1 -8 3 -5 6 6 6 11 1 17 -2 13 -5z m38 -12 c-3 -3 -11 0
-18 7 -9 10 -8 11 6 5 10 -3 15 -9 12 -12z m72 -4 c-3 -8 -6 -5 -6 6 -1 11 2
17 5 13 3 -3 4 -12 1 -19z m111 5 c-2 -10 2 -17 9 -16 15 3 25 -25 11 -33 -7
-4 -8 -3 -4 4 8 13 -6 16 -18 5 -4 -4 -25 -8 -46 -8 -34 0 -37 2 -29 17 6 10
7 24 3 31 -3 6 6 -1 21 -18 20 -23 25 -25 21 -10 -6 19 -5 19 8 2 8 -11 17
-14 20 -8 4 5 2 12 -3 16 -6 3 -8 12 -4 20 7 21 15 19 11 -2z m2682 7 c0 -5
-2 -10 -4 -10 -3 0 -8 5 -11 10 -3 6 -1 10 4 10 6 0 11 -4 11 -10z m-2565 -9
c-3 -6 10 -17 30 -27 39 -18 51 -31 30 -31 -8 0 -16 6 -19 14 -3 7 -10 13 -16
13 -6 0 -8 -5 -4 -12 4 -6 3 -8 -4 -4 -5 3 -13 0 -16 -6 -3 -7 -3 -3 -1 9 3
12 1 24 -5 28 -10 6 -5 25 6 25 3 0 3 -4 -1 -9z m-327 -13 c-2 -6 -10 -13 -16
-14 -7 -1 -8 0 -2 3 5 2 8 9 4 14 -3 5 0 9 6 9 7 0 10 -5 8 -12z m312 -22 c0
-6 -7 -3 -14 6 -7 10 -17 14 -21 10 -5 -4 -5 -1 -1 6 6 10 11 10 22 1 8 -6 14
-17 14 -23z m77 19 c0 -8 -4 -12 -9 -9 -4 3 -8 9 -8 15 0 5 4 9 8 9 5 0 9 -7
9 -15z m198 6 c3 -5 2 -12 -3 -15 -5 -3 -9 1 -9 9 0 17 3 19 12 6z m2219 1 c3
-5 -1 -9 -9 -9 -8 0 -12 4 -9 9 3 4 7 8 9 8 2 0 6 -4 9 -8z m403 -7 c0 -8 -4
-12 -9 -9 -5 3 -6 10 -3 15 9 13 12 11 12 -6z m243 5 c0 -5 -5 -10 -11 -10 -5
0 -7 5 -4 10 3 6 8 10 11 10 2 0 4 -4 4 -10z m240 0 c0 -5 -5 -10 -11 -10 -5
0 -7 5 -4 10 3 6 8 10 11 10 2 0 4 -4 4 -10z m-2883 -15 c0 -8 -4 -15 -9 -15
-10 0 -11 14 -1 23 9 10 10 9 10 -8z m198 -5 c3 -5 1 -10 -4 -10 -6 0 -11 5
-11 10 0 6 2 10 4 10 3 0 8 -4 11 -10z m1921 -16 c1 -9 0 -13 -4 -10 -3 4 -7
14 -8 22 -1 9 0 13 4 10 3 -4 7 -14 8 -22z m40 0 c1 -9 0 -13 -4 -10 -3 4 -7
14 -8 22 -1 9 0 13 4 10 3 -4 7 -14 8 -22z m-1723 1 c-3 -9 -8 -14 -10 -11 -3
3 -2 9 2 15 9 16 15 13 8 -4z m1482 6 c3 -5 2 -12 -3 -15 -5 -3 -9 1 -9 9 0
17 3 19 12 6z m1751 -10 c1 -6 0 -7 -3 -1 -2 5 -9 8 -13 5 -5 -3 -11 -1 -14 4
-4 5 2 8 11 7 9 -2 18 -8 19 -15z m-3690 -9 c-10 -2 -22 0 -28 6 -6 6 0 7 19
4 21 -5 23 -7 9 -10z m2299 9 c-9 -8 -36 -10 -30 -2 2 4 11 8 20 8 8 0 13 -3
10 -6z m60 0 c-9 -8 -36 -10 -30 -2 2 4 11 8 20 8 8 0 13 -3 10 -6z m140 0 c3
-5 2 -12 -3 -15 -5 -3 -9 1 -9 9 0 17 3 19 12 6z m105 4 c0 -7 -30 -13 -34 -7
-3 4 4 9 15 9 10 1 19 0 19 -2z m175 -4 c-9 -8 -36 -10 -30 -2 2 4 11 8 20 8
8 0 13 -3 10 -6z m45 -1 c0 -5 -5 -10 -11 -10 -5 0 -7 5 -4 10 3 6 8 10 11 10
2 0 4 -4 4 -10z m195 0 c3 -5 1 -10 -4 -10 -6 0 -11 5 -11 10 0 6 2 10 4 10 3
0 8 -4 11 -10z m548 -7 c-4 -10 -2 -14 4 -10 7 4 10 0 9 -10 -3 -19 -36 -32
-36 -14 0 6 8 7 18 4 15 -6 15 -5 4 10 -8 9 -11 21 -7 27 10 16 15 12 8 -7z
m76 -38 c0 -5 -4 -2 -10 7 -5 9 -15 16 -22 14 -6 -1 -9 -1 -4 1 4 3 7 9 7 14
0 6 -5 7 -12 3 -7 -5 -8 -3 -3 6 6 10 12 7 26 -11 10 -13 19 -28 18 -34z
m-3602 17 c-1 -21 -24 -25 -31 -6 -3 9 1 11 11 7 11 -4 14 -2 9 5 -4 7 -3 12
3 12 5 0 9 -8 8 -18z m116 4 c-4 -5 1 -7 10 -3 11 4 14 2 10 -9 -5 -13 -8 -12
-27 3 -11 10 -23 19 -25 20 -2 1 6 1 17 0 11 0 18 -5 15 -11z m67 2 c0 -4 -4
-8 -9 -8 -6 0 -12 4 -15 8 -3 5 1 9 9 9 8 0 15 -4 15 -9z m2331 -5 c13 -16 12
-17 -3 -4 -17 13 -22 21 -14 21 2 0 10 -8 17 -17z m563 8 c3 -5 -2 -15 -12
-22 -15 -12 -16 -12 -5 2 7 9 10 19 6 22 -3 4 -4 7 0 7 3 0 8 -4 11 -9z m77
-8 c12 -16 12 -17 -2 -6 -9 7 -20 9 -24 5 -5 -4 -5 -1 -1 6 9 16 11 15 27 -5z
m29 7 c0 -5 -2 -10 -4 -10 -3 0 -8 5 -11 10 -3 6 -1 10 4 10 6 0 11 -4 11 -10z
m71 -13 c-10 -9 -11 -8 -5 6 3 10 9 15 12 12 3 -3 0 -11 -7 -18z m49 15 c0 -5
-7 -9 -15 -9 -8 0 -12 4 -9 9 3 4 9 8 15 8 5 0 9 -4 9 -8z m193 -7 c-3 -9 -8
-14 -10 -11 -3 3 -2 9 2 15 9 16 15 13 8 -4z m137 5 c0 -5 -4 -10 -10 -10 -5
0 -10 5 -10 10 0 6 5 10 10 10 6 0 10 -4 10 -10z m-3265 -20 c-2 -3 5 -11 16
-18 15 -9 19 -9 19 0 0 6 6 3 14 -7 13 -18 14 -17 30 11 10 16 14 20 11 9 -4
-11 -10 -28 -12 -38 -5 -17 -7 -17 -24 -1 -12 10 -19 12 -19 5 0 -16 -49 -6
-69 14 -9 9 -11 15 -4 15 6 0 13 -6 16 -12 2 -7 8 -9 13 -5 5 5 1 15 -10 22
-18 13 -18 14 2 12 11 0 19 -4 17 -7z m68 -7 c-3 -7 -6 -13 -8 -13 -2 0 -5 6
-8 13 -3 8 1 14 8 14 7 0 11 -6 8 -14z m202 8 c3 -5 2 -12 -3 -15 -5 -3 -9 1
-9 9 0 17 3 19 12 6z m1098 -16 c-7 -21 -12 -19 -10 4 0 11 5 18 9 15 4 -3 5
-11 1 -19z m44 3 c2 -17 0 -19 -7 -8 -5 8 -6 18 -4 22 8 12 10 10 11 -14z m80
0 c2 -17 0 -19 -7 -8 -5 8 -6 18 -4 22 8 12 10 10 11 -14z m119 7 c-1 -8 -5
-17 -8 -21 -5 -4 -4 16 1 34 3 9 9 -1 7 -13z m339 5 c3 -5 1 -10 -4 -10 -6 0
-11 5 -11 10 0 6 2 10 4 10 3 0 8 -4 11 -10z m45 0 c0 -5 -5 -10 -11 -10 -5 0
-7 5 -4 10 3 6 8 10 11 10 2 0 4 -4 4 -10z m340 0 c0 -5 -2 -10 -4 -10 -3 0
-8 5 -11 10 -3 6 -1 10 4 10 6 0 11 -4 11 -10z m80 0 c0 -5 -2 -10 -4 -10 -3
0 -8 5 -11 10 -3 6 -1 10 4 10 6 0 11 -4 11 -10z m614 -6 c3 -8 2 -12 -4 -9
-6 3 -10 10 -10 16 0 14 7 11 14 -7z m46 -10 c0 -2 -9 0 -20 6 -11 6 -20 13
-20 16 0 2 9 0 20 -6 11 -6 20 -13 20 -16z m20 6 c6 -11 8 -20 6 -20 -3 0 -10
9 -16 20 -6 11 -8 20 -6 20 3 0 10 -9 16 -20z m195 10 c-3 -5 -12 -10 -20 -10
-7 0 -15 -7 -19 -15 -7 -19 4 -19 30 -1 14 10 25 11 35 5 12 -8 12 -9 -1 -7
-8 1 -26 -4 -39 -11 -19 -11 -25 -11 -35 1 -6 7 -10 12 -8 11 2 -1 12 7 23 18
20 20 45 26 34 9z m-3455 -10 c0 -5 -4 -10 -10 -10 -5 0 -10 5 -10 10 0 6 5
10 10 10 6 0 10 -4 10 -10z m2770 -5 c-14 -17 -30 -20 -30 -4 0 5 4 8 9 4 5
-3 12 -1 16 5 3 5 9 10 12 10 3 0 0 -7 -7 -15z m130 11 c0 -2 -8 -10 -17 -17
-16 -13 -17 -12 -4 4 13 16 21 21 21 13z m62 -10 c10 6 11 4 0 -7 -10 -11 -15
-10 -30 6 -15 17 -15 18 0 6 9 -7 23 -9 30 -5z m125 8 c-3 -3 -12 -4 -19 -1
-8 3 -5 6 6 6 11 1 17 -2 13 -5z m86 -7 c3 -8 -1 -14 -8 -14 -7 0 -11 6 -8 14
3 7 6 13 8 13 2 0 5 -6 8 -13z m177 -2 c-7 -8 -17 -15 -23 -15 -6 0 -2 7 9 15
25 19 30 19 14 0z m27 -7 c-2 -12 -9 -24 -15 -26 -7 -2 -9 -9 -6 -14 4 -7 2
-8 -4 -4 -17 10 -15 26 3 26 8 0 14 3 14 8 -2 14 1 32 6 32 3 0 3 -10 2 -22z
m-3037 1 c5 9 10 10 14 3 3 -6 -3 -14 -14 -17 -17 -5 -19 -10 -9 -21 8 -10 8
-14 0 -14 -6 0 -12 5 -12 10 -3 20 -4 25 -14 40 -8 13 -7 13 9 1 14 -12 19
-12 26 -2z m65 -7 c-3 -3 -11 0 -18 7 -9 10 -8 11 6 5 10 -3 15 -9 12 -12z
m1810 0 c-3 -3 -11 0 -18 7 -9 10 -8 11 6 5 10 -3 15 -9 12 -12z m510 8 c-3
-5 -12 -10 -18 -10 -7 0 -6 4 3 10 19 12 23 12 15 0z m106 -7 c12 -16 12 -17
-2 -6 -9 7 -20 9 -24 5 -5 -4 -5 -1 -1 6 9 16 11 15 27 -5z m209 9 c0 -5 -7
-9 -15 -9 -8 0 -12 4 -9 9 3 4 9 8 15 8 5 0 9 -4 9 -8z m84 -7 c-4 -8 -11 -12
-16 -9 -6 4 -5 10 3 15 19 12 19 11 13 -6z m181 -16 c15 1 12 -22 -3 -25 -7
-1 -8 0 -2 3 14 7 13 24 -2 21 -6 -2 -13 6 -15 17 -3 18 -2 18 5 2 4 -10 12
-18 17 -18z m-389 12 c-4 -5 0 -11 6 -14 7 -3 3 -4 -9 -4 -17 1 -19 4 -11 14
12 15 22 18 14 4z m674 -11 c-8 -5 -17 -7 -19 -4 -3 3 1 9 9 14 8 5 17 7 19 4
3 -3 -1 -9 -9 -14z m-1735 0 c3 -5 1 -10 -4 -10 -6 0 -11 5 -11 10 0 6 2 10 4
10 3 0 8 -4 11 -10z m49 2 c3 -5 -1 -9 -9 -9 -8 0 -12 4 -9 9 3 4 7 8 9 8 2 0
6 -4 9 -8z m112 -18 c1 -9 0 -13 -4 -10 -3 4 -7 14 -8 22 -1 9 0 13 4 10 3 -4
7 -14 8 -22z m280 14 c3 -4 -1 -5 -10 -4 -8 1 -18 5 -22 8 -3 4 1 5 10 4 8 -1
18 -5 22 -8z m64 6 c0 -8 -19 -13 -24 -6 -3 5 1 9 9 9 8 0 15 -2 15 -3z m135
-4 c3 -5 1 -10 -4 -10 -6 0 -11 5 -11 10 0 6 2 10 4 10 3 0 8 -4 11 -10z m380
-8 c-3 -3 -11 0 -18 7 -9 10 -8 11 6 5 10 -3 15 -9 12 -12z m118 5 c-4 -6 0
-8 10 -4 11 4 14 2 10 -9 -7 -18 -7 -18 -26 4 -14 15 -15 19 -2 19 8 0 11 -5
8 -10z m80 -13 c-4 -11 -9 -12 -19 -3 -19 15 -18 20 3 12 12 -5 14 -3 8 7 -5
8 -4 11 3 6 6 -4 9 -13 5 -22z m182 -4 c0 -14 -7 -24 -18 -26 -9 -1 -15 2 -11
7 3 5 10 7 15 4 5 -4 9 3 9 15 0 12 -4 19 -9 15 -5 -3 -12 -1 -15 4 -4 5 2 8
11 7 11 -2 18 -12 18 -26z m-615 16 c0 -2 -8 -10 -17 -17 -16 -13 -17 -12 -4
4 13 16 21 21 21 13z m196 -8 c5 4 6 3 2 -2 -4 -5 -2 -16 4 -25 10 -12 7 -12
-8 2 -11 9 -23 15 -26 12 -2 -3 -5 2 -5 10 0 10 4 12 12 5 7 -5 16 -6 21 -2z
m334 8 c0 -2 -7 -7 -16 -10 -8 -3 -12 -2 -9 4 6 10 25 14 25 6z m302 -35 c-5
-14 -4 -14 11 -2 13 10 15 17 6 27 -7 9 -8 14 -1 14 18 0 22 -29 5 -45 -8 -9
-13 -19 -9 -22 3 -4 12 -1 18 5 7 7 17 12 22 12 6 0 0 -7 -13 -16 -28 -20 -42
-9 -47 38 -3 22 -1 28 5 19 5 -8 6 -21 3 -30z m88 24 c0 -8 -2 -15 -4 -15 -2
0 -13 -3 -23 -6 -17 -5 -17 -5 0 6 9 6 15 15 12 21 -4 5 -1 9 4 9 6 0 11 -7
11 -15z m-2960 1 c0 -2 -7 -7 -16 -10 -8 -3 -12 -2 -9 4 6 10 25 14 25 6z
m117 -11 c0 -8 -4 -12 -9 -9 -5 3 -6 10 -3 15 9 13 12 11 12 -6z m1098 5 c3
-5 1 -10 -4 -10 -6 0 -11 5 -11 10 0 6 2 10 4 10 3 0 8 -4 11 -10z m325 6 c0
-3 -4 -8 -10 -11 -5 -3 -10 -1 -10 4 0 6 5 11 10 11 6 0 10 -2 10 -4z m300 -6
c0 -5 -2 -10 -4 -10 -3 0 -8 5 -11 10 -3 6 -1 10 4 10 6 0 11 -4 11 -10z m160
4 c0 -8 -19 -13 -24 -6 -3 5 1 9 9 9 8 0 15 -2 15 -3z m145 -4 c3 -6 -1 -7 -9
-4 -18 7 -21 14 -7 14 6 0 13 -4 16 -10z m475 0 c0 -5 -4 -10 -10 -10 -5 0
-10 5 -10 10 0 6 5 10 10 10 6 0 10 -4 10 -10z m-1660 -4 c0 -2 -8 -10 -17
-17 -16 -13 -17 -12 -4 4 13 16 21 21 21 13z m160 -14 c0 -5 -7 -9 -15 -9 -8
0 -12 4 -9 9 3 4 9 8 15 8 5 0 9 -4 9 -8z m460 -2 c0 -5 -5 -10 -11 -10 -5 0
-7 5 -4 10 3 6 8 10 11 10 2 0 4 -4 4 -10z m40 0 c0 -5 -5 -10 -11 -10 -5 0
-7 5 -4 10 3 6 8 10 11 10 2 0 4 -4 4 -10z m94 1 c3 -5 -2 -15 -12 -22 -15
-12 -16 -12 -5 2 7 9 10 19 6 22 -3 4 -4 7 0 7 3 0 8 -4 11 -9z m603 -6 c0 -8
-4 -12 -9 -9 -5 3 -6 10 -3 15 9 13 12 11 12 -6z m213 11 c0 -2 -7 -6 -15 -10
-8 -3 -15 -1 -15 4 0 6 7 10 15 10 8 0 15 -2 15 -4z m70 -6 c8 -5 11 -10 5
-10 -5 0 -17 5 -25 10 -8 5 -10 10 -5 10 6 0 17 -5 25 -10z m76 -16 c-3 -15
-8 -29 -11 -32 -3 -3 -3 5 -1 19 2 13 5 27 5 32 1 4 3 7 6 7 3 0 3 -12 1 -26z
m69 16 c3 -5 2 -10 -4 -10 -5 0 -13 5 -16 10 -3 6 -2 10 4 10 5 0 13 -4 16
-10z m51 -5 c4 -8 11 -12 16 -9 6 4 5 -3 -1 -15 -14 -25 -23 -28 -14 -4 4 11
3 14 -5 9 -8 -5 -10 -2 -6 9 5 11 2 14 -12 8 -12 -4 -15 -3 -10 5 10 16 26 15
32 -3z m-2606 -12 c0 5 5 5 10 2 6 -4 8 -11 4 -16 -7 -12 -34 8 -34 25 0 6 5
4 10 -4 5 -8 10 -11 10 -7z m692 10 c-6 -3 -9 -9 -6 -15 4 -6 -2 -5 -15 1 -27
15 -27 16 7 17 15 1 21 -1 14 -3z m74 -18 c-21 -19 -31 -22 -49 -15 -19 9 -19
10 -2 8 11 -2 31 5 45 15 35 24 37 21 6 -8z m240 13 c5 4 5 3 1 -2 -12 -15
-34 -15 -34 0 0 9 4 11 12 4 7 -5 16 -6 21 -2z m85 -5 c13 -16 12 -17 -3 -4
-17 13 -22 21 -14 21 2 0 10 -8 17 -17z m76 2 c0 -8 -3 -13 -5 -10 -3 3 -10 0
-17 -5 -8 -7 -12 -5 -12 5 0 8 4 12 8 9 4 -2 10 0 14 6 9 14 12 13 12 -5z
m671 -8 c17 -18 19 -24 7 -24 -8 0 -13 3 -10 5 3 3 -2 14 -12 24 -24 27 -10
22 15 -5z m191 10 c8 -10 7 -14 -2 -14 -8 0 -14 6 -14 14 0 7 1 13 2 13 2 0 8
-6 14 -13z m225 1 c4 3 4 -1 0 -11 -3 -9 -11 -17 -17 -17 -6 0 -7 3 -4 7 4 3
-1 12 -11 20 -15 13 -15 13 4 4 12 -6 24 -7 28 -3z m-2171 -17 c-4 -3 -11 -10
-15 -15 -4 -4 -6 1 -5 12 1 12 6 18 15 15 7 -3 10 -9 5 -12z m42 -2 c-4 -5
-12 -9 -18 -8 -9 0 -8 2 1 6 6 2 9 10 6 15 -4 7 -2 8 5 4 6 -4 9 -12 6 -17z
m529 -10 c11 9 17 8 28 -2 7 -8 21 -13 31 -11 9 1 17 -2 17 -7 0 -7 -38 -6
-47 2 -8 6 -30 4 -40 -3 -6 -5 -14 -4 -18 2 -5 8 -12 7 -23 -2 -15 -11 -15
-11 -4 4 11 13 11 17 0 21 -7 2 -5 3 5 2 10 -2 17 3 18 13 0 11 3 9 10 -7 7
-18 12 -21 23 -12z m161 21 c-3 -5 -12 -10 -18 -10 -7 0 -6 4 3 10 19 12 23
12 15 0z m35 0 c0 -5 -2 -10 -4 -10 -3 0 -8 5 -11 10 -3 6 -1 10 4 10 6 0 11
-4 11 -10z m441 -3 c-6 -8 -7 -18 -3 -22 4 -5 1 -5 -6 -1 -10 6 -10 11 -1 22
6 8 14 14 16 14 3 0 0 -6 -6 -13z m599 3 c0 -5 -5 -10 -11 -10 -5 0 -7 5 -4
10 3 6 8 10 11 10 2 0 4 -4 4 -10z m97 -7 c0 -8 -4 -9 -12 -3 -14 12 -38 8
-61 -10 -18 -14 -18 -14 -2 6 20 23 75 28 75 7z m177 9 c3 -5 -1 -9 -9 -9 -8
0 -12 4 -9 9 3 4 7 8 9 8 2 0 6 -4 9 -8z m140 0 c3 -5 -1 -9 -9 -9 -8 0 -12 4
-9 9 3 4 7 8 9 8 2 0 6 -4 9 -8z m51 -2 c3 -6 -1 -7 -9 -4 -18 7 -21 14 -7 14
6 0 13 -4 16 -10z m35 6 c0 -3 -4 -8 -10 -11 -5 -3 -10 -1 -10 4 0 6 5 11 10
11 6 0 10 -2 10 -4z m150 -6 c18 -12 2 -12 -25 0 -13 6 -15 9 -5 9 8 0 22 -4
30 -9z m-2386 -16 c3 -8 2 -12 -4 -9 -6 3 -10 10 -10 16 0 14 7 11 14 -7z
m1173 3 c0 -8 -6 -14 -14 -14 -9 0 -10 4 -2 14 6 7 12 13 14 13 1 0 2 -6 2
-13z m1130 7 c-3 -3 -12 -4 -19 -1 -8 3 -5 6 6 6 11 1 17 -2 13 -5z m-2084
-24 c-3 -12 -8 -19 -11 -16 -5 6 5 36 12 36 2 0 2 -9 -1 -20z m48 -7 c-12 -20
-14 -14 -5 12 4 9 9 14 11 11 3 -2 0 -13 -6 -23z m369 -1 c0 -13 5 -12 20 8
l20 25 -3 -24 c-4 -29 -33 -36 -47 -13 -7 13 -9 13 -10 3 0 -8 -2 -12 -5 -9
-3 3 -3 13 1 22 7 19 24 11 24 -12z m295 2 c9 -15 12 -23 6 -20 -11 7 -35 46
-28 46 3 0 12 -12 22 -26z m289 18 c2 -4 -4 -8 -14 -8 -10 0 -16 4 -14 8 3 4
9 8 14 8 5 0 11 -4 14 -8z m227 -9 c13 -16 12 -17 -3 -4 -10 7 -18 15 -18 17
0 8 8 3 21 -13z m444 -3 c-10 -11 -22 -17 -26 -14 -5 3 -9 0 -9 -5 0 -6 -5
-11 -10 -11 -6 0 -5 8 2 20 7 11 15 15 19 9 3 -6 11 -4 19 6 7 8 15 15 18 15
3 0 -3 -9 -13 -20z m82 -7 c1 -24 1 -25 -7 -8 -11 26 -12 35 -2 35 4 0 8 -12
9 -27z m222 -6 c-1 -21 -1 -21 -8 2 -6 21 -8 22 -20 7 -7 -9 -18 -16 -23 -16
-6 0 0 9 13 19 28 22 39 19 38 -12z m201 15 c0 9 3 9 9 -2 14 -21 2 -33 -17
-17 -31 26 -42 29 -42 12 0 -10 5 -13 12 -9 7 4 8 3 4 -4 -11 -18 -26 -14 -26
6 0 29 11 34 37 17 17 -12 23 -12 23 -3z m-2280 4 c0 -2 -7 -7 -16 -10 -8 -3
-12 -2 -9 4 6 10 25 14 25 6z m1233 -11 c-3 -9 -8 -14 -10 -11 -3 3 -2 9 2 15
9 16 15 13 8 -4z m162 6 c3 -5 2 -12 -3 -15 -5 -3 -9 1 -9 9 0 17 3 19 12 6z
m620 -3 c-25 -15 -47 -19 -39 -7 3 5 9 7 14 4 5 -3 11 -1 15 5 3 5 12 10 18
10 7 0 3 -6 -8 -12z m86 -11 c-10 -9 -11 -8 -5 6 3 10 9 15 12 12 3 -3 0 -11
-7 -18z m-1307 -2 c3 -8 1 -15 -4 -15 -6 0 -10 7 -10 15 0 8 2 15 4 15 2 0 6
-7 10 -15z m53 -7 c-3 -8 -6 -5 -6 6 -1 11 2 17 5 13 3 -3 4 -12 1 -19z m33 1
c0 -5 -4 -9 -8 -9 -5 0 -9 7 -9 15 0 8 4 12 9 9 4 -3 8 -9 8 -15z m80 11 c0
-5 -4 -10 -10 -10 -5 0 -10 5 -10 10 0 6 5 10 10 10 6 0 10 -4 10 -10z m247
-12 c-3 -8 -6 -5 -6 6 -1 11 2 17 5 13 3 -3 4 -12 1 -19z m90 7 c0 -6 -8 -11
-17 -11 -9 0 -17 5 -17 11 0 6 8 11 17 11 9 0 17 -5 17 -11z m514 -2 c13 -16
12 -17 -3 -4 -10 7 -18 15 -18 17 0 8 8 3 21 -13z m133 2 c-10 -8 -23 -15 -28
-15 -6 0 -1 7 10 15 10 8 23 15 28 15 6 0 1 -7 -10 -15z m257 -2 c13 -17 13
-17 -6 -3 -11 8 -22 16 -24 17 -2 2 0 3 6 3 6 0 17 -8 24 -17z"/>
<path d="M5850 5480 c0 -5 5 -10 10 -10 6 0 10 5 10 10 0 6 -4 10 -10 10 -5 0
-10 -4 -10 -10z"/>
<path d="M5887 5399 c13 -13 6 -42 -8 -33 -5 3 -9 1 -9 -4 0 -6 7 -12 15 -16
8 -3 12 -12 9 -21 -3 -8 -11 -12 -17 -8 -6 4 -7 1 -2 -8 5 -7 10 -22 10 -32 1
-10 7 -22 14 -27 16 -10 16 -21 -1 -31 -11 -7 -11 -9 1 -9 7 0 11 -6 8 -14 -4
-10 -1 -13 9 -9 17 6 19 23 2 23 -6 0 -9 2 -6 5 9 10 35 -5 35 -20 0 -8 -9
-17 -19 -21 -23 -7 -23 -16 1 -31 16 -10 20 -9 25 3 3 9 4 20 1 24 -3 5 4 8
15 7 24 -2 25 -5 3 -29 -10 -12 -12 -18 -4 -18 7 0 9 -4 6 -10 -3 -5 -1 -10 5
-10 7 0 9 8 5 23 -7 21 -6 21 11 5 17 -17 17 -18 0 -37 -14 -15 -15 -21 -4
-27 7 -4 10 -4 6 0 -3 4 3 19 15 32 22 26 38 25 17 -1 -7 -9 -11 -18 -8 -21 3
-2 13 10 21 28 9 18 17 31 18 28 0 -3 2 -13 4 -22 2 -9 -3 -19 -11 -22 -16 -6
-19 -26 -3 -26 5 0 8 4 5 9 -3 5 1 11 9 14 9 4 12 1 8 -9 -3 -7 0 -14 6 -14 6
0 10 3 10 8 -1 4 -1 13 0 21 1 19 16 4 16 -16 0 -9 6 -18 13 -20 6 -3 12 2 12
11 0 9 5 16 11 16 5 0 7 -5 3 -12 -4 -6 -3 -8 4 -4 6 3 13 2 17 -4 7 -12 25
-4 25 12 0 5 -7 8 -15 5 -8 -4 -17 -2 -19 2 -11 18 34 5 49 -14 16 -20 16 -20
6 1 -6 12 -7 25 -3 29 4 5 2 5 -5 2 -6 -4 -18 0 -26 8 -18 17 -31 20 -22 5 3
-5 2 -10 -3 -10 -16 0 -29 24 -27 48 1 14 -2 19 -8 13 -11 -11 -39 -3 -32 9 6
10 -15 8 -32 -3 -20 -12 -36 2 -22 19 10 13 6 18 -13 15 -5 0 -8 4 -8 10 0 5
-5 7 -11 3 -8 -4 -7 -9 2 -15 9 -6 10 -9 2 -9 -6 0 -21 12 -32 26 -12 15 -21
22 -21 17 0 -5 5 -14 12 -21 8 -8 8 -12 1 -12 -16 0 -25 31 -12 46 6 7 18 10
26 7 12 -5 14 -3 8 8 -5 8 1 6 13 -5 12 -10 19 -23 16 -27 -3 -5 -1 -9 5 -9
19 0 20 16 3 31 -31 27 -43 31 -55 21 -18 -15 -70 29 -61 51 3 9 11 14 16 11
6 -4 5 -10 -3 -15 -7 -4 -10 -12 -5 -16 5 -4 11 -2 13 5 4 9 8 10 18 2 9 -8
15 -8 20 0 9 15 -3 30 -19 24 -8 -3 -17 0 -21 5 -3 6 -11 8 -17 5 -7 -4 -7 0
1 13 10 20 -2 43 -23 43 -6 0 -5 -5 1 -11z m53 -145 c-7 -7 -9 -18 -5 -23 3
-7 0 -8 -9 -5 -9 3 -14 10 -11 14 3 4 -2 13 -9 20 -8 6 -14 20 -13 30 1 18 2
18 29 -2 23 -16 26 -23 18 -34z m78 -53 c15 12 15 12 5 -1 -9 -12 -8 -20 3
-35 15 -20 15 -20 26 -1 9 17 12 17 22 4 11 -15 17 -18 38 -18 6 0 8 -3 5 -7
-4 -3 -1 -13 7 -22 13 -14 12 -19 -1 -36 -12 -16 -14 -16 -10 -3 3 10 2 20 -4
23 -5 4 -7 10 -4 15 3 4 -2 10 -10 13 -9 4 -12 1 -8 -9 3 -7 -1 -14 -8 -14 -7
0 -9 3 -6 7 4 3 2 12 -4 19 -8 10 -16 11 -31 3 -26 -14 -54 7 -37 27 8 10 8
14 0 15 -6 1 -15 3 -21 4 -5 1 -16 3 -22 4 -9 1 -9 4 2 11 9 5 19 5 27 -2 9
-7 18 -7 31 3z m-68 -41 c0 -5 -4 -10 -10 -10 -5 0 -10 5 -10 10 0 6 5 10 10
10 6 0 10 -4 10 -10z"/>
<path d="M5900 5284 c0 -17 27 -37 34 -25 4 5 2 12 -4 16 -5 3 -10 3 -10 -2 0
-4 -5 -1 -10 7 -5 8 -10 10 -10 4z"/>
<path d="M6060 5161 c0 -6 4 -13 10 -16 6 -3 7 1 4 9 -7 18 -14 21 -14 7z"/>
<path d="M5971 5238 c8 -16 13 -17 25 -7 17 14 12 22 -16 24 -16 1 -17 -2 -9
-17z"/>
<path d="M1830 2400 c0 -5 5 -10 11 -10 5 0 7 5 4 10 -3 6 -8 10 -11 10 -2 0
-4 -4 -4 -10z"/>
<path d="M1880 2380 c-9 -6 -10 -10 -3 -10 6 0 15 5 18 10 8 12 4 12 -15 0z"/>
<path d="M4576 2152 c-3 -5 1 -9 9 -9 8 0 12 4 9 9 -3 4 -7 8 -9 8 -2 0 -6 -4
-9 -8z"/>
<path d="M5475 6511 c-3 -5 -2 -12 3 -15 5 -3 9 1 9 9 0 17 -3 19 -12 6z"/>
<path d="M5483 6445 c0 -8 4 -12 9 -9 5 3 6 10 3 15 -9 13 -12 11 -12 -6z"/>
<path d="M5491 6404 c0 -11 3 -14 6 -6 3 7 2 16 -1 19 -3 4 -6 -2 -5 -13z"/>
<path d="M780 2520 c-9 -6 -10 -10 -3 -10 6 0 15 5 18 10 8 12 4 12 -15 0z"/>
<path d="M635 2511 c-3 -5 0 -13 6 -17 7 -4 9 -3 5 4 -3 5 0 13 6 15 9 4 10 6
1 6 -6 1 -14 -3 -18 -8z"/>
<path d="M995 2449 c-4 -6 -5 -12 -2 -15 2 -3 7 2 10 11 7 17 1 20 -8 4z"/>
<path d="M1090 2430 c0 -5 5 -10 11 -10 5 0 7 5 4 10 -3 6 -8 10 -11 10 -2 0
-4 -4 -4 -10z"/>
<path d="M1566 2425 c4 -10 0 -13 -14 -10 -11 2 -28 -2 -37 -9 -16 -11 -16
-13 -1 -13 9 0 16 5 16 11 0 5 7 1 15 -10 10 -13 13 -14 10 -3 -4 10 0 16 10
16 10 0 14 -6 10 -16 -4 -13 -2 -13 8 1 8 10 17 15 20 11 4 -3 2 -12 -4 -19
-7 -8 -6 -14 2 -20 7 -4 9 -3 6 3 -9 15 20 36 39 29 8 -3 13 -10 10 -14 -3 -5
1 -9 9 -9 8 0 12 4 9 9 -3 4 0 8 5 8 6 0 11 -5 11 -12 0 -6 7 -3 15 8 13 16
14 16 9 2 -3 -10 -1 -18 4 -18 19 0 22 17 7 30 -8 7 -15 9 -15 5 0 -4 -7 -2
-15 5 -12 10 -16 9 -21 -4 -5 -13 -9 -14 -20 -5 -10 8 -11 16 -5 23 7 8 4 12
-9 13 -12 1 -17 -3 -14 -12 7 -16 -21 -14 -38 3 -17 17 -29 15 -22 -3z"/>
<path d="M1750 2382 c0 -5 7 -9 15 -9 8 0 12 4 9 9 -3 4 -9 8 -15 8 -5 0 -9
-4 -9 -8z"/>
<path d="M1980 2360 c0 -5 5 -10 11 -10 5 0 7 5 4 10 -3 6 -8 10 -11 10 -2 0
-4 -4 -4 -10z"/>
<path d="M2185 2360 c-3 -6 1 -7 9 -4 18 7 21 14 7 14 -6 0 -13 -4 -16 -10z"/>
<path d="M2517 2334 c-12 -12 -8 -24 9 -24 9 0 13 -5 9 -12 -4 -7 0 -5 8 5 9
10 18 14 21 8 3 -5 18 -8 32 -6 15 1 28 -3 31 -11 3 -8 10 -14 15 -14 6 0 5 6
-2 15 -15 18 1 20 18 3 8 -8 15 -8 28 3 16 12 17 12 11 -3 -4 -12 -2 -15 9
-11 13 5 13 8 -2 24 -13 14 -20 16 -31 8 -10 -9 -17 -8 -28 1 -12 10 -15 10
-15 0 0 -9 -6 -8 -19 4 -18 17 -20 17 -30 -1 -7 -11 -11 -13 -11 -4 0 7 -6 11
-14 8 -7 -3 -18 -1 -23 4 -5 5 -12 6 -16 3z"/>
<path d="M2880 2266 c0 -2 7 -7 16 -10 8 -3 12 -2 9 4 -6 10 -25 14 -25 6z"/>
<path d="M3276 2261 c-4 -6 -2 -11 4 -11 6 0 8 -6 4 -12 -6 -10 -4 -10 7 0 9
9 10 15 2 23 -8 8 -13 8 -17 0z"/>
<path d="M3095 2240 c3 -5 8 -10 11 -10 2 0 4 5 4 10 0 6 -5 10 -11 10 -5 0
-7 -4 -4 -10z"/>
<path d="M3470 2229 c0 -5 5 -7 10 -4 6 3 10 8 10 11 0 2 -4 4 -10 4 -5 0 -10
-5 -10 -11z"/>
<path d="M3880 2215 c-8 -9 -8 -15 -2 -15 12 0 26 19 19 26 -2 2 -10 -2 -17
-11z"/>
<path d="M3945 2200 c3 -5 10 -10 16 -10 5 0 9 5 9 10 0 6 -7 10 -16 10 -8 0
-12 -4 -9 -10z"/>
<path d="M8062 2193 c6 -8 17 -12 24 -9 7 3 16 -4 19 -15 4 -10 11 -19 16 -19
6 0 7 5 4 10 -3 6 -1 10 5 10 7 0 9 -7 6 -16 -5 -12 -2 -15 10 -10 8 3 18 6
20 6 2 0 4 5 4 11 0 5 -4 7 -10 4 -5 -3 -7 0 -4 8 3 10 -2 14 -18 13 -13 -1
-30 3 -38 10 -8 6 -23 11 -32 11 -14 0 -15 -3 -6 -14z"/>
<path d="M8179 2197 c-1 -7 -3 -19 -4 -27 -1 -8 -3 -20 -4 -27 0 -7 -12 -9
-28 -7 -64 11 -83 10 -80 0 2 -6 14 -10 26 -8 18 2 21 -2 16 -18 -4 -11 -3
-20 2 -19 19 3 34 -2 28 -10 -3 -5 -1 -13 5 -16 6 -4 10 -3 9 2 -5 27 1 35 16
23 8 -7 12 -17 8 -23 -3 -6 -1 -7 6 -3 9 6 9 11 1 21 -8 9 -8 15 0 20 5 3 10
1 10 -4 0 -9 28 -9 50 -1 3 2 8 2 13 1 4 0 6 5 5 11 -2 7 8 14 21 16 13 2 21
0 18 -5 -4 -6 1 -10 9 -10 12 0 12 3 2 12 -21 18 -71 37 -62 24 5 -8 3 -9 -6
-4 -8 5 -11 4 -7 -2 4 -6 0 -16 -8 -23 -12 -10 -15 -10 -15 1 0 12 -2 12 -9 1
-6 -11 -10 -10 -15 4 -4 9 -2 22 4 28 8 8 10 7 5 -4 -4 -11 1 -16 16 -17 16
-2 18 1 9 12 -17 20 -3 37 19 25 10 -5 21 -6 25 -3 3 3 6 1 6 -5 0 -6 9 -9 20
-7 11 2 20 0 20 -6 0 -5 7 -9 16 -9 8 0 13 -4 9 -9 -3 -5 -1 -12 4 -15 18 -11
5 24 -15 39 -16 12 -17 14 -3 15 9 0 20 8 24 18 5 14 4 15 -6 5 -17 -17 -24
-16 -43 3 -12 12 -16 12 -16 2 0 -10 -3 -9 -11 2 -9 13 -10 13 -6 -2 9 -26 -6
-31 -21 -6 -7 13 -11 16 -9 7 4 -11 -1 -15 -16 -14 -12 1 -26 -3 -30 -9 -6 -7
-7 -6 -4 4 2 8 9 15 15 15 20 0 21 11 2 12 -11 1 -21 -4 -21 -10z m126 -28
c-3 -4 -12 -6 -20 -3 -8 4 -13 10 -10 15 3 4 12 6 20 3 8 -4 13 -10 10 -15z
m-45 -32 c0 -2 -10 -12 -22 -23 l-23 -19 19 23 c18 21 26 27 26 19z m-114 -16
c12 10 13 9 8 -5 -7 -18 -26 -17 -30 2 -1 7 0 8 3 2 3 -8 9 -7 19 1z m25 -14
c-10 -9 -11 -8 -5 6 3 10 9 15 12 12 3 -3 0 -11 -7 -18z"/>
<path d="M4226 2174 c-9 -23 -8 -24 14 -24 23 0 26 13 6 29 -11 9 -15 8 -20
-5z"/>
<path d="M8033 2144 c1 -18 6 -32 11 -31 6 1 11 -8 12 -20 1 -12 -2 -20 -7
-17 -4 2 -6 10 -3 18 3 7 -1 13 -8 13 -7 0 -20 2 -28 4 -8 2 -15 -3 -15 -11 0
-9 7 -14 18 -12 9 2 17 -1 17 -7 0 -11 -19 -9 -39 3 -9 6 -22 0 -40 -19 -22
-23 -23 -25 -5 -16 12 5 25 7 29 3 5 -4 5 -1 0 7 -5 9 -3 12 6 9 8 -3 13 -10
12 -15 -1 -5 4 -10 12 -10 7 0 11 5 9 12 -3 6 5 11 16 12 12 1 18 -3 14 -8 -3
-6 3 -5 14 2 12 7 18 19 15 28 -4 10 2 8 16 -6 26 -27 28 -28 28 -9 0 8 -5 14
-11 13 -6 -1 -10 6 -10 15 1 10 -2 15 -7 12 -5 -3 -18 1 -28 8 -16 11 -17 16
-6 31 10 13 14 15 18 5 4 -10 7 -11 18 0 11 10 11 12 -1 13 -8 1 -25 3 -36 4
-18 2 -21 -3 -21 -31z"/>
<path d="M8350 2160 c0 -5 5 -10 11 -10 5 0 7 5 4 10 -3 6 -8 10 -11 10 -2 0
-4 -4 -4 -10z"/>
<path d="M4350 2140 c0 -5 5 -10 10 -10 6 0 10 5 10 10 0 6 -4 10 -10 10 -5 0
-10 -4 -10 -10z"/>
<path d="M4777 2134 c-12 -12 -8 -20 17 -32 17 -8 27 -7 36 1 10 10 12 8 6 -8
-6 -20 -6 -20 9 -1 8 11 15 25 14 30 0 6 -3 5 -6 -2 -4 -10 -8 -10 -20 -1 -8
7 -13 8 -12 3 4 -23 -2 -24 -19 -4 -9 12 -21 18 -25 14z"/>
<path d="M4864 2088 c3 -15 26 -23 26 -8 0 6 -4 9 -9 6 -5 -4 -12 -1 -14 4 -3
6 -4 5 -3 -2z"/>
<path d="M5051 2074 c0 -11 3 -14 6 -6 3 7 2 16 -1 19 -3 4 -6 -2 -5 -13z"/>
<path d="M5655 2040 c-3 -5 -1 -10 4 -10 6 0 11 5 11 10 0 6 -2 10 -4 10 -3 0
-8 -4 -11 -10z"/>
<path d="M5715 2040 c-3 -5 -1 -10 4 -10 6 0 11 5 11 10 0 6 -2 10 -4 10 -3 0
-8 -4 -11 -10z"/>
<path d="M5740 2043 c0 -3 6 -11 14 -19 13 -12 15 -12 13 4 -1 15 -27 29 -27
15z"/>
<path d="M7830 2041 c0 -5 7 -11 14 -14 10 -4 13 -1 9 9 -6 15 -23 19 -23 5z"/>
<path d="M5479 2023 c-13 -16 -12 -17 4 -4 16 13 21 21 13 21 -2 0 -10 -8 -17
-17z"/>
</g>
</svg>
